<svg width="200" height="151" viewBox="0 0 200 151" fill="none" xmlns="http://www.w3.org/2000/svg">
<path d="M200 151H-3V0H200V151Z" fill="#3384FA"/>
<path d="M191.528 123.82H7.51953V110.064C7.51953 59.2377 48.7123 18.0449 99.5238 18.0449C150.335 18.0449 191.528 59.2377 191.528 110.064V123.82Z" fill="#66A0F4"/>
<path d="M23.0532 143.755C34.8036 143.755 44.3291 134.229 44.3291 122.479C44.3291 110.729 34.8036 101.203 23.0532 101.203C11.3029 101.203 1.77734 110.729 1.77734 122.479C1.77734 134.229 11.3029 143.755 23.0532 143.755Z" fill="#3384FA"/>
<path d="M175.973 141.172C185.93 141.172 194.002 133.1 194.002 123.143C194.002 113.185 185.93 105.113 175.973 105.113C166.015 105.113 157.943 113.185 157.943 123.143C157.943 133.1 166.015 141.172 175.973 141.172Z" fill="#3384FA"/>
<path d="M49.5099 142.018C59.4672 142.018 67.5393 133.946 67.5393 123.988C67.5393 114.031 59.4672 105.959 49.5099 105.959C39.5525 105.959 31.4805 114.031 31.4805 123.988C31.4805 133.946 39.5525 142.018 49.5099 142.018Z" fill="#3384FA"/>
<path d="M151.328 141.852C161.286 141.852 169.358 133.78 169.358 123.822C169.358 113.865 161.286 105.793 151.328 105.793C141.371 105.793 133.299 113.865 133.299 123.822C133.299 133.78 141.371 141.852 151.328 141.852Z" fill="#3384FA"/>
<path d="M47.4087 125.468C59.3759 125.468 69.0772 115.767 69.0772 103.799C69.0772 91.8322 59.3759 82.1309 47.4087 82.1309C35.4416 82.1309 25.7402 91.8322 25.7402 103.799C25.7402 115.767 35.4416 125.468 47.4087 125.468Z" fill="#3384FA"/>
<path d="M123.788 109.038C135.847 109.038 145.622 99.2627 145.622 87.2037C145.622 75.1448 135.847 65.3691 123.788 65.3691C111.729 65.3691 101.953 75.1448 101.953 87.2037C101.953 99.2627 111.729 109.038 123.788 109.038Z" fill="#3384FA"/>
<path d="M83.8165 116.725C100.537 116.725 114.092 103.17 114.092 86.4493C114.092 69.7286 100.537 56.1738 83.8165 56.1738C67.0958 56.1738 53.541 69.7286 53.541 86.4493C53.541 103.17 67.0958 116.725 83.8165 116.725Z" fill="#3384FA"/>
<path d="M148.517 133.729C163.886 133.729 176.346 121.269 176.346 105.9C176.346 90.5299 163.886 78.0703 148.517 78.0703C133.147 78.0703 120.688 90.5299 120.688 105.9C120.688 121.269 133.147 133.729 148.517 133.729Z" fill="#3384FA"/>
<path d="M119.861 143.92C135.23 143.92 147.69 131.461 147.69 116.091C147.69 100.721 135.23 88.2617 119.861 88.2617C104.491 88.2617 92.0312 100.721 92.0312 116.091C92.0312 131.461 104.491 143.92 119.861 143.92Z" fill="#3384FA"/>
<path d="M77.382 143.391C92.7517 143.391 105.211 130.931 105.211 115.562C105.211 100.192 92.7517 87.7324 77.382 87.7324C62.0123 87.7324 49.5527 100.192 49.5527 115.562C49.5527 130.931 62.0123 143.391 77.382 143.391Z" fill="#3384FA"/>
<path d="M7.29226 111.046C6.71846 112.072 6.25036 113.16 5.85776 114.277C5.82756 114.368 5.73696 114.428 5.64636 114.428C5.62623 114.428 5.60106 114.423 5.57086 114.413C5.45006 114.383 5.38966 114.247 5.43496 114.126C5.82756 112.994 6.31076 111.876 6.88456 110.819C6.94496 110.713 7.09596 110.683 7.20166 110.744C7.30736 110.789 7.35266 110.94 7.29226 111.046Z" fill="#064298"/>
<path d="M50.3564 80.7714C50.3564 80.8922 50.2508 80.9979 50.13 80.9979C39.1825 80.9979 30.0167 89.1972 28.8238 100.054C28.8087 100.115 28.7786 100.175 28.7333 100.205C28.688 100.235 28.6276 100.266 28.5672 100.25C27.6461 100.13 26.7099 100.069 25.7737 100.069C20.1565 100.069 14.8564 102.259 10.8851 106.245C10.8398 106.29 10.7793 106.306 10.719 106.306C10.6585 106.306 10.6133 106.29 10.568 106.245C10.4774 106.155 10.4774 106.019 10.568 105.928C14.6298 101.851 20.0357 99.6162 25.7737 99.6162C26.6495 99.6162 27.5252 99.6615 28.3859 99.7672C29.7298 88.7895 39.0315 80.5449 50.13 80.5449C50.2508 80.5449 50.3564 80.6506 50.3564 80.7714Z" fill="#064298"/>
<path d="M66.7865 62.1207C66.8771 62.2264 66.862 62.3623 66.7714 62.4529C61.0938 67.4208 57.5 74.2611 56.6695 81.7356C56.6544 81.8413 56.5638 81.9319 56.443 81.9319C56.4329 81.9319 56.4229 81.9319 56.4128 81.9319C56.292 81.9168 56.2014 81.8112 56.2165 81.6753C57.0621 74.0951 60.7012 67.149 66.4694 62.1056C66.56 62.0301 66.711 62.0301 66.7865 62.1207Z" fill="#064298"/>
<path d="M81.193 55.2835C81.2232 55.4043 81.1326 55.5251 81.0118 55.5402C77.6596 56.1593 74.4584 57.3522 71.4988 59.0585C71.4686 59.0786 71.4334 59.0887 71.3931 59.0887C71.3176 59.0887 71.2421 59.0434 71.1968 58.983C71.1364 58.8622 71.1666 58.7263 71.2723 58.6659C74.2772 56.9294 77.5237 55.7214 80.9363 55.1023C81.0571 55.0721 81.1628 55.1476 81.193 55.2835Z" fill="#064298"/>
<path d="M112.524 69.1141C112.6 69.2198 112.569 69.3557 112.464 69.4312C112.423 69.4513 112.383 69.4614 112.343 69.4614C112.267 69.4614 112.192 69.4161 112.147 69.3557C106.62 60.3863 97.0466 55.0409 86.537 55.0409C86.4162 55.0409 86.3105 54.9352 86.3105 54.8144C86.3105 54.6785 86.4162 54.5879 86.537 54.5879C91.8371 54.5879 97.0617 55.962 101.637 58.5743C106.076 61.1111 109.851 64.7653 112.524 69.1141Z" fill="#064298"/>
<path d="M143.178 71.3936C143.253 71.4842 143.253 71.6352 143.148 71.7107C143.117 71.756 143.057 71.7711 143.012 71.7711C142.936 71.7711 142.876 71.7409 142.83 71.6956C138.723 66.9542 132.774 64.2362 126.507 64.2362C123.774 64.2362 121.117 64.7345 118.61 65.7311C118.489 65.7764 118.353 65.716 118.308 65.5952C118.263 65.4895 118.323 65.3536 118.444 65.3083C121.011 64.2966 123.729 63.7832 126.507 63.7832C132.91 63.7832 138.98 66.5616 143.178 71.3936Z" fill="#064298"/>
<path d="M161.78 78.7781C161.735 78.8687 161.659 78.9291 161.569 78.9291C161.539 78.9291 161.508 78.9241 161.478 78.914C158.217 77.6003 154.774 76.951 151.24 76.951C149.67 76.951 148.1 77.0718 146.559 77.3436C146.439 77.3587 146.318 77.2832 146.303 77.1624C146.288 77.0265 146.363 76.9208 146.484 76.8906C148.054 76.6339 149.655 76.498 151.24 76.498C154.834 76.498 158.337 77.1624 161.644 78.4912C161.765 78.5365 161.825 78.6724 161.78 78.7781Z" fill="#064298"/>
<path d="M189.143 107.076C189.098 107.137 189.022 107.182 188.947 107.182C188.906 107.182 188.866 107.167 188.826 107.137C185.942 105.143 182.559 104.056 179.056 103.981C178.935 103.981 178.83 103.89 178.83 103.769C178.588 94.9963 174.118 86.797 166.886 81.7989C166.78 81.7385 166.75 81.5875 166.825 81.4969C166.901 81.3912 167.037 81.361 167.142 81.4365C170.706 83.8827 173.696 87.1896 175.795 90.9646C177.909 94.8 179.117 99.1337 179.268 103.543C182.801 103.649 186.183 104.766 189.083 106.759C189.188 106.835 189.203 106.971 189.143 107.076Z" fill="#064298"/>
<path d="M196.042 116.828C196.022 116.828 196.002 116.828 195.981 116.828C195.876 116.828 195.785 116.768 195.755 116.677C195.302 115.152 194.638 113.687 193.792 112.328C193.716 112.223 193.747 112.087 193.852 112.011C193.958 111.951 194.109 111.981 194.169 112.087C195.045 113.476 195.725 114.971 196.193 116.541C196.223 116.662 196.163 116.783 196.042 116.828Z" fill="#064298"/>
<path d="M42.9126 59.8565C43.463 59.8565 43.9092 59.4103 43.9092 58.8599C43.9092 58.3095 43.463 57.8633 42.9126 57.8633C42.3622 57.8633 41.916 58.3095 41.916 58.8599C41.916 59.4103 42.3622 59.8565 42.9126 59.8565Z" fill="#064298"/>
<path d="M46.688 59.8565C47.2384 59.8565 47.6846 59.4103 47.6846 58.8599C47.6846 58.3095 47.2384 57.8633 46.688 57.8633C46.1376 57.8633 45.6914 58.3095 45.6914 58.8599C45.6914 59.4103 46.1376 59.8565 46.688 59.8565Z" fill="#064298"/>
<path d="M50.4595 59.8565C51.0099 59.8565 51.4561 59.4103 51.4561 58.8599C51.4561 58.3095 51.0099 57.8633 50.4595 57.8633C49.9091 57.8633 49.4629 58.3095 49.4629 58.8599C49.4629 59.4103 49.9091 59.8565 50.4595 59.8565Z" fill="#064298"/>
<path d="M150.604 63.5596C151.154 63.5596 151.601 63.1134 151.601 62.563C151.601 62.0126 151.154 61.5664 150.604 61.5664C150.054 61.5664 149.607 62.0126 149.607 62.563C149.607 63.1134 150.054 63.5596 150.604 63.5596Z" fill="#064298"/>
<path d="M154.379 63.5596C154.93 63.5596 155.376 63.1134 155.376 62.563C155.376 62.0126 154.93 61.5664 154.379 61.5664C153.829 61.5664 153.383 62.0126 153.383 62.563C153.383 63.1134 153.829 63.5596 154.379 63.5596Z" fill="#064298"/>
<path d="M158.17 63.5596C158.721 63.5596 159.167 63.1134 159.167 62.563C159.167 62.0126 158.721 61.5664 158.17 61.5664C157.62 61.5664 157.174 62.0126 157.174 62.563C157.174 63.1134 157.62 63.5596 158.17 63.5596Z" fill="#064298"/>
<path d="M113.34 31.0635C113.891 31.0635 114.337 30.6173 114.337 30.0669C114.337 29.5165 113.891 29.0703 113.34 29.0703C112.79 29.0703 112.344 29.5165 112.344 30.0669C112.344 30.6173 112.79 31.0635 113.34 31.0635Z" fill="#064298"/>
<path d="M117.116 31.0635C117.666 31.0635 118.112 30.6173 118.112 30.0669C118.112 29.5165 117.666 29.0703 117.116 29.0703C116.565 29.0703 116.119 29.5165 116.119 30.0669C116.119 30.6173 116.565 31.0635 117.116 31.0635Z" fill="#064298"/>
<path d="M120.907 31.0635C121.457 31.0635 121.903 30.6173 121.903 30.0669C121.903 29.5165 121.457 29.0703 120.907 29.0703C120.356 29.0703 119.91 29.5165 119.91 30.0669C119.91 30.6173 120.356 31.0635 120.907 31.0635Z" fill="#064298"/>
<path d="M18.2876 23.583C18.838 23.583 19.2842 23.1369 19.2842 22.5864C19.2842 22.036 18.838 21.5898 18.2876 21.5898C17.7372 21.5898 17.291 22.036 17.291 22.5864C17.291 23.1369 17.7372 23.583 18.2876 23.583Z" fill="#064298"/>
<path d="M22.063 23.583C22.6134 23.583 23.0596 23.1369 23.0596 22.5864C23.0596 22.036 22.6134 21.5898 22.063 21.5898C21.5126 21.5898 21.0664 22.036 21.0664 22.5864C21.0664 23.1369 21.5126 23.583 22.063 23.583Z" fill="#064298"/>
<path d="M25.8345 23.583C26.3849 23.583 26.8311 23.1369 26.8311 22.5864C26.8311 22.036 26.3849 21.5898 25.8345 21.5898C25.2841 21.5898 24.8379 22.036 24.8379 22.5864C24.8379 23.1369 25.2841 23.583 25.8345 23.583Z" fill="#064298"/>
<path d="M162.567 15.8995C163.117 15.8995 163.564 15.4533 163.564 14.9028C163.564 14.3524 163.117 13.9062 162.567 13.9062C162.017 13.9062 161.57 14.3524 161.57 14.9028C161.57 15.4533 162.017 15.8995 162.567 15.8995Z" fill="#064298"/>
<path d="M166.358 15.8995C166.908 15.8995 167.355 15.4533 167.355 14.9028C167.355 14.3524 166.908 13.9062 166.358 13.9062C165.808 13.9062 165.361 14.3524 165.361 14.9028C165.361 15.4533 165.808 15.8995 166.358 15.8995Z" fill="#064298"/>
<path d="M170.133 15.8995C170.684 15.8995 171.13 15.4533 171.13 14.9028C171.13 14.3524 170.684 13.9062 170.133 13.9062C169.583 13.9062 169.137 14.3524 169.137 14.9028C169.137 15.4533 169.583 15.8995 170.133 15.8995Z" fill="#064298"/>
<path fill-rule="evenodd" clip-rule="evenodd" d="M191.526 28.2804C190.545 28.2804 189.76 27.4801 189.76 26.4986C189.76 25.5171 190.545 24.7168 191.526 24.7168C192.508 24.7168 193.308 25.5171 193.308 26.4986C193.308 27.4801 192.508 28.2804 191.526 28.2804ZM191.526 25.1245C190.771 25.1245 190.167 25.7436 190.167 26.4986C190.167 27.2536 190.771 27.8727 191.526 27.8727C192.281 27.8727 192.901 27.2536 192.901 26.4986C192.901 25.7436 192.281 25.1245 191.526 25.1245Z" fill="#064298"/>
<path fill-rule="evenodd" clip-rule="evenodd" d="M19.5084 88.6652C18.5269 88.6652 17.7266 87.8649 17.7266 86.8834C17.7266 85.9019 18.5269 85.1016 19.5084 85.1016C20.4899 85.1016 21.2902 85.9019 21.2902 86.8834C21.2902 87.8649 20.4899 88.6652 19.5084 88.6652ZM19.5084 85.5093C18.7534 85.5093 18.1343 86.1284 18.1343 86.8834C18.1343 87.6384 18.7534 88.2575 19.5084 88.2575C20.2634 88.2575 20.8825 87.6384 20.8825 86.8834C20.8825 86.1284 20.2634 85.5093 19.5084 85.5093Z" fill="#064298"/>
<path fill-rule="evenodd" clip-rule="evenodd" d="M61.2447 18.0426C60.2632 18.0426 59.4629 17.2574 59.4629 16.2759C59.4629 15.2944 60.2632 14.4941 61.2447 14.4941C62.2262 14.4941 63.0265 15.2944 63.0265 16.2759C63.0265 17.2574 62.2262 18.0426 61.2447 18.0426ZM61.2447 14.9018C60.4897 14.9018 59.8706 15.5209 59.8706 16.2759C59.8706 17.0309 60.4897 17.6349 61.2447 17.6349C61.9997 17.6349 62.6037 17.0309 62.6037 16.2759C62.6037 15.5209 61.9997 14.9018 61.2447 14.9018Z" fill="#064298"/>
<path fill-rule="evenodd" clip-rule="evenodd" d="M128.576 47.7999C128.093 47.7999 127.686 47.3922 127.686 46.909C127.686 46.4258 128.093 46.0332 128.576 46.0332C129.06 46.0332 129.452 46.4258 129.452 46.909C129.452 47.3922 129.06 47.7999 128.576 47.7999ZM128.576 46.2295C128.199 46.2295 127.897 46.5315 127.897 46.909C127.897 47.2865 128.199 47.5885 128.576 47.5885C128.954 47.5885 129.256 47.2865 129.256 46.909C129.256 46.5315 128.954 46.2295 128.576 46.2295Z" fill="#064298"/>
<path fill-rule="evenodd" clip-rule="evenodd" d="M12.0404 52.2136C11.5572 52.2136 11.1797 51.8361 11.1797 51.3529C11.1797 50.8848 11.5572 50.4922 12.0404 50.4922C12.5085 50.4922 12.886 50.8848 12.886 51.3529C12.886 51.8361 12.5085 52.2136 12.0404 52.2136ZM12.0404 50.6885C11.678 50.6885 11.376 50.9905 11.376 51.3529C11.376 51.7153 11.678 52.0173 12.0404 52.0173C12.4028 52.0173 12.6897 51.7153 12.6897 51.3529C12.6897 50.9905 12.4028 50.6885 12.0404 50.6885Z" fill="#064298"/>
<path fill-rule="evenodd" clip-rule="evenodd" d="M180.761 85.6628C180.293 85.6628 179.9 85.2702 179.9 84.8021C179.9 84.3189 180.293 83.9414 180.761 83.9414C181.229 83.9414 181.622 84.3189 181.622 84.8021C181.622 85.2702 181.229 85.6628 180.761 85.6628ZM180.761 84.1377C180.399 84.1377 180.097 84.4397 180.097 84.8021C180.097 85.1645 180.399 85.4665 180.761 85.4665C181.123 85.4665 181.425 85.1645 181.425 84.8021C181.425 84.4397 181.123 84.1377 180.761 84.1377Z" fill="#064298"/>
<path fill-rule="evenodd" clip-rule="evenodd" d="M174.422 39.6413C173.954 39.6413 173.576 39.2638 173.576 38.7806C173.576 38.3125 173.954 37.9199 174.422 37.9199C174.905 37.9199 175.282 38.3125 175.282 38.7806C175.282 39.2638 174.905 39.6413 174.422 39.6413ZM174.422 38.1162C174.059 38.1162 173.772 38.4182 173.772 38.7806C173.772 39.143 174.059 39.445 174.422 39.445C174.799 39.445 175.086 39.143 175.086 38.7806C175.086 38.4182 174.799 38.1162 174.422 38.1162Z" fill="#064298"/>
<path fill-rule="evenodd" clip-rule="evenodd" d="M84.9505 37.6188C84.4673 37.6188 84.0898 37.2262 84.0898 36.743C84.0898 36.2598 84.4673 35.8672 84.9505 35.8672C85.4337 35.8672 85.8263 36.2598 85.8263 36.743C85.8263 37.2262 85.4337 37.6188 84.9505 37.6188ZM84.9505 36.0786C84.5881 36.0786 84.2861 36.3806 84.2861 36.743C84.2861 37.1205 84.5881 37.4074 84.9505 37.4074C85.328 37.4074 85.63 37.1205 85.63 36.743C85.63 36.3806 85.328 36.0786 84.9505 36.0786Z" fill="#1A145C"/>
<path d="M53.2566 132.019H37.7188V97.9531L53.2566 101.577V132.019Z" fill="#064298"/>
<path d="M31.1172 101.667L37.278 98.043V132.018H31.1172V101.667Z" fill="#064298"/>
<path d="M38.8223 129.362V99.8418L52.4123 102.862V129.71L38.8223 129.362Z" fill="#2A73DE"/>
<path d="M52.0346 103.133V131.974H51.1135V103.48L38.7617 100.808V100.219L52.0346 103.133Z" fill="#064298"/>
<path d="M38.3246 120.846C38.3246 120.786 38.385 120.726 38.4605 120.741L50.616 121.737V121.979L38.4303 120.982C38.3699 120.982 38.3095 120.922 38.3246 120.846Z" fill="#064298"/>
<path d="M38.3246 123.73C38.3246 123.655 38.385 123.609 38.4454 123.609L50.616 124.379V124.621L38.4303 123.851C38.3699 123.851 38.3095 123.791 38.3246 123.73Z" fill="#064298"/>
<path d="M38.4611 114.973L50.6166 116.452V116.709L38.4309 115.229C38.3554 115.214 38.3101 115.154 38.3252 115.093C38.3252 115.018 38.3856 114.973 38.4611 114.973Z" fill="#064298"/>
<path d="M38.4605 117.855L50.616 119.094V119.335L38.4303 118.112C38.3699 118.097 38.3095 118.037 38.3246 117.976C38.3246 117.901 38.385 117.855 38.4605 117.855Z" fill="#064298"/>
<path d="M38.4611 112.132L50.6166 113.808V114.065L38.4309 112.373C38.3554 112.358 38.3101 112.298 38.3252 112.238C38.3252 112.162 38.4007 112.117 38.4611 112.132Z" fill="#064298"/>
<path d="M38.3252 106.47C38.3403 106.394 38.4007 106.349 38.4611 106.364L50.6166 108.524V108.78L38.4309 106.606C38.3554 106.591 38.3101 106.53 38.3252 106.47Z" fill="#064298"/>
<path d="M38.3252 103.586C38.3403 103.525 38.4007 103.48 38.4762 103.495L50.6166 105.881V106.138L38.4158 103.737C38.3554 103.722 38.3101 103.661 38.3252 103.586Z" fill="#064298"/>
<path d="M38.3246 126.599C38.3246 126.539 38.385 126.479 38.4454 126.479L50.616 127.022V127.264L38.4454 126.735C38.3699 126.735 38.3095 126.675 38.3246 126.599Z" fill="#064298"/>
<path d="M38.4611 109.235L50.6166 111.168V111.424L38.4309 109.491C38.3554 109.476 38.3101 109.416 38.3252 109.34C38.3252 109.28 38.4007 109.22 38.4611 109.235Z" fill="#064298"/>
<path d="M42.8395 102.964L40.0762 102.391V101.938L42.8395 102.526V102.964Z" fill="#A6D4FD"/>
<path d="M42.8395 103.811L40.0762 103.237V102.799L42.8395 103.358V103.811Z" fill="#A6D4FD"/>
<path d="M42.8395 106.586L40.0762 106.088V105.635L42.8395 106.148V106.586Z" fill="#A6D4FD"/>
<path d="M42.8395 105.759L40.0762 105.231V104.793L42.8395 105.306V105.759Z" fill="#A6D4FD"/>
<path d="M42.8395 122.503L40.0762 122.291V121.854L42.8395 122.05V122.503Z" fill="#A6D4FD"/>
<path d="M42.8395 123.337L40.0762 123.141V122.703L42.8395 122.899V123.337Z" fill="#A6D4FD"/>
<path d="M42.8395 119.71L40.0762 119.453V119L42.8395 119.272V119.71Z" fill="#A6D4FD"/>
<path d="M42.8395 120.541L40.0762 120.299V119.861L42.8395 120.103V120.541Z" fill="#A6D4FD"/>
<path d="M42.8395 128.468V128.906L40.0762 128.83V128.393L42.8395 128.468Z" fill="#A6D4FD"/>
<path d="M42.8395 128.075L40.0762 127.969V127.531L42.8395 127.637V128.075Z" fill="#A6D4FD"/>
<path d="M42.8395 126.128L40.0762 125.992V125.539L42.8395 125.69V126.128Z" fill="#A6D4FD"/>
<path d="M42.8395 125.282L40.0762 125.131V124.693L42.8395 124.844V125.282Z" fill="#A6D4FD"/>
<path d="M42.8395 111.331L40.0762 110.924V110.471L42.8395 110.894V111.331Z" fill="#A6D4FD"/>
<path d="M42.8395 112.174L40.0762 111.766V111.328L42.8395 111.736V112.174Z" fill="#A6D4FD"/>
<path d="M42.8395 108.55L40.0762 108.067V107.629L42.8395 108.097V108.55Z" fill="#A6D4FD"/>
<path d="M42.8395 109.381L40.0762 108.928V108.49L42.8395 108.943V109.381Z" fill="#A6D4FD"/>
<path d="M42.8395 114.123L40.0762 113.76V113.322L42.8395 113.685V114.123Z" fill="#A6D4FD"/>
<path d="M42.8395 116.915L40.0762 116.598V116.16L42.8395 116.477V116.915Z" fill="#A6D4FD"/>
<path d="M42.8395 117.746L40.0762 117.459V117.021L42.8395 117.308V117.746Z" fill="#A6D4FD"/>
<path d="M42.8395 114.968L40.0762 114.606V114.168L42.8395 114.515V114.968Z" fill="#A6D4FD"/>
<path d="M47.0977 111.543L50.4348 112.041V112.842V113.174V113.279L47.0977 112.796V112.675V112.358V111.543Z" fill="#51ABF5"/>
<path d="M47.0977 114.248L50.4348 114.686V115.486V115.818V115.924L47.0977 115.501V115.381V115.063V114.248Z" fill="#51ABF5"/>
<path d="M47.0977 106.125L50.4348 106.759V107.544V107.831V107.997L47.0977 107.378V107.197V106.94V106.125Z" fill="#51ABF5"/>
<path d="M47.0977 108.828L50.4348 109.402V110.202V110.474V110.64L47.0977 110.097V109.9V109.644V108.828Z" fill="#51ABF5"/>
<path d="M47.0977 116.967L50.4348 117.344V118.129V118.462V118.567L47.0977 118.22V118.084V117.782V116.967Z" fill="#51ABF5"/>
<path d="M47.0977 127.793L50.4348 127.929V128.714V129.046V129.152L47.0977 129.046V128.925V128.608V127.793Z" fill="#51ABF5"/>
<path d="M47.0977 125.09L50.4348 125.271V126.071V126.404V126.509L47.0977 126.343V126.222V125.905V125.09Z" fill="#51ABF5"/>
<path d="M50.4348 104.101V104.901V105.173V105.354L47.0977 104.675V104.478V104.222V103.406L50.4348 104.101Z" fill="#51ABF5"/>
<path d="M47.0977 119.67L50.4348 119.987V120.772V121.12V121.225L47.0977 120.923V120.802V120.485V119.67Z" fill="#51ABF5"/>
<path d="M47.0977 122.387L50.4348 122.628V123.429V123.761V123.867L47.0977 123.625V123.504V123.187V122.387Z" fill="#51ABF5"/>
<path d="M46.6862 123.611L46.3691 123.596V122.357L46.6862 122.373V123.611Z" fill="#072C62"/>
<path d="M45.1172 126.253V125L45.4343 125.03V126.268L45.1172 126.253Z" fill="#072C62"/>
<path d="M45.1172 120.754V119.516L45.4343 119.531V120.784L45.1172 120.754Z" fill="#072C62"/>
<path d="M46.054 126.298L45.752 126.283V125.045L46.054 125.06V126.298Z" fill="#072C62"/>
<path d="M45.1172 123.503V122.25L45.4343 122.28V123.533L45.1172 123.503Z" fill="#072C62"/>
<path d="M46.6862 126.329L46.3691 126.314V125.076L46.6862 125.091V126.329Z" fill="#072C62"/>
<path d="M45.752 123.547V122.309L46.054 122.324V123.562L45.752 123.547Z" fill="#072C62"/>
<path d="M45.75 108.631L46.052 108.676V109.929L45.75 109.869V108.631Z" fill="#061CE4"/>
<path d="M45.1172 118.004V116.766L45.4343 116.796V118.049L45.1172 118.004Z" fill="#072C62"/>
<path d="M46.3691 108.734L46.6862 108.795V110.033L46.3691 109.973V108.734Z" fill="#072C62"/>
<path d="M45.1172 108.523L45.4343 108.569V109.822L45.1172 109.777V108.523Z" fill="#072C62"/>
<path d="M45.1172 115.26V114.021L45.4343 114.052V115.305L45.1172 115.26Z" fill="#072C62"/>
<path d="M45.1191 112.525V111.271L45.4362 111.317V112.57L45.1191 112.525Z" fill="#061CE4"/>
<path d="M45.752 111.363L46.054 111.409V112.662L45.752 112.617V111.363Z" fill="#072C62"/>
<path d="M46.3691 120.861V119.623L46.6862 119.653V120.891L46.3691 120.861Z" fill="#072C62"/>
<path d="M46.3691 114.188L46.6862 114.233V115.456L46.3691 115.426V114.188Z" fill="#072C62"/>
<path d="M46.3691 118.142V116.904L46.6862 116.934V118.173L46.3691 118.142Z" fill="#072C62"/>
<path d="M45.752 115.349V114.096L46.054 114.141V115.379L45.752 115.349Z" fill="#072C62"/>
<path d="M46.3691 111.455L46.6862 111.515V112.754L46.3691 112.708V111.455Z" fill="#072C62"/>
<path d="M45.752 118.083V116.83L46.054 116.875V118.114L45.752 118.083Z" fill="#061CE4"/>
<path d="M45.752 120.816V119.562L46.054 119.593V120.846L45.752 120.816Z" fill="#072C62"/>
<path d="M43.8633 120.65V119.396L44.1804 119.427V120.68L43.8633 120.65Z" fill="#072C62"/>
<path d="M43.8633 115.106V113.838L44.1804 113.883V115.152L43.8633 115.106Z" fill="#072C62"/>
<path d="M43.8633 112.347V111.078L44.1804 111.123V112.392L43.8633 112.347Z" fill="#072C62"/>
<path d="M43.8633 106.804V105.535L44.1804 105.596V106.849L43.8633 106.804Z" fill="#072C62"/>
<path d="M43.8633 117.888V116.619L44.1804 116.649V117.918L43.8633 117.888Z" fill="#072C62"/>
<path d="M43.8633 109.565V108.297L44.1804 108.357V109.626L43.8633 109.565Z" fill="#072C62"/>
<path d="M43.8633 128.954V127.701L44.1804 127.716V128.97L43.8633 128.954Z" fill="#072C62"/>
<path d="M43.8633 126.193V124.939L44.1804 124.955V126.208L43.8633 126.193Z" fill="#072C62"/>
<path d="M43.8633 123.412V122.158L44.1804 122.188V123.442L43.8633 123.412Z" fill="#072C62"/>
<path d="M46.3691 104.537V103.283L46.6862 103.359V104.597L46.3691 104.537Z" fill="#061CE4"/>
<path d="M44.4824 104.161V102.893L44.7995 102.953V104.221L44.4824 104.161Z" fill="#072C62"/>
<path d="M43.8633 104.024V102.756L44.1804 102.831V104.085L43.8633 104.024Z" fill="#072C62"/>
<path d="M45.752 104.402V103.164L46.054 103.224V104.478L45.752 104.402Z" fill="#072C62"/>
<path d="M45.1191 104.281V103.027L45.4362 103.088V104.341L45.1191 104.281Z" fill="#061CE4"/>
<path d="M45.4343 127.763V129.016L45.1172 129.001V127.748L45.4343 127.763Z" fill="#072C62"/>
<path d="M44.4824 128.984V127.73H44.7995V128.984H44.4824Z" fill="#072C62"/>
<path d="M46.054 127.792V129.031L45.752 129.016V127.777L46.054 127.792Z" fill="#072C62"/>
<path d="M44.4824 126.222V124.969L44.7995 124.984V126.237L44.4824 126.222Z" fill="#072C62"/>
<path d="M46.3691 106.018L46.6862 106.078V107.316L46.3691 107.256V106.018Z" fill="#072C62"/>
<path d="M46.6862 127.808V129.046L46.3691 129.031V127.793L46.6862 127.808Z" fill="#072C62"/>
<path d="M44.4805 123.456V122.203L44.7976 122.233V123.487L44.4805 123.456Z" fill="#061CE4"/>
<path d="M45.1172 105.775L45.4343 105.836V107.089L45.1172 107.029V105.775Z" fill="#072C62"/>
<path d="M44.4805 109.673V108.42L44.7976 108.465V109.719L44.4805 109.673Z" fill="#061CE4"/>
<path d="M44.4824 105.654L44.7995 105.715V106.968L44.4824 106.908V105.654Z" fill="#072C62"/>
<path d="M45.752 105.898L46.054 105.959V107.197L45.752 107.137V105.898Z" fill="#061CE4"/>
<path d="M44.4824 117.947V116.693L44.7995 116.724V117.977L44.4824 117.947Z" fill="#072C62"/>
<path d="M44.4824 112.434V111.166L44.7995 111.211V112.48L44.4824 112.434Z" fill="#072C62"/>
<path d="M44.4824 120.71V119.457L44.7995 119.487V120.725L44.4824 120.71Z" fill="#072C62"/>
<path d="M44.4824 115.183V113.93L44.7995 113.975V115.228L44.4824 115.183Z" fill="#072C62"/>
<g style="mix-blend-mode:screen" opacity="0.7">
<g style="mix-blend-mode:screen">
<g style="mix-blend-mode:screen">
<path d="M41.5666 100.445L44.4658 101.095L38.8184 108.222V104.175L41.5666 100.445Z" fill="#1555B8"/>
</g>
</g>
<g style="mix-blend-mode:screen">
<g style="mix-blend-mode:screen">
<path d="M38.8184 117.22C43.6202 111.981 48.1502 107.028 52.0309 102.77L52.4084 102.86V116.39L38.8184 127.715V117.22Z" fill="#1555B8"/>
</g>
</g>
</g>
<path d="M50.3115 132.017H48.7109V99.2051H50.3115V132.017Z" fill="#093472"/>
<path d="M78.4999 132.017H58.1602V87.3965L78.4999 92.153V132.017Z" fill="#064298"/>
<path d="M49.5078 92.259L57.5863 87.5176V132.017H49.5078V92.259Z" fill="#064298"/>
<path d="M59.5977 128.542V89.8711L77.3855 93.8273V128.98L59.5977 128.542Z" fill="#2A73DE"/>
<path d="M76.9011 94.1758V131.956H75.7082V94.6288L59.5059 91.1256V90.3555L76.9011 94.1758Z" fill="#064298"/>
<path d="M58.9492 117.381C58.9492 117.291 59.0247 117.215 59.1153 117.23L75.0458 118.544V118.876L59.1002 117.563C59.0096 117.548 58.9341 117.472 58.9492 117.381Z" fill="#064298"/>
<path d="M58.9492 121.141C58.9492 121.051 59.0247 120.99 59.1153 120.99L75.0458 122.002V122.334L59.1002 121.322C59.0096 121.322 58.9341 121.232 58.9492 121.141Z" fill="#064298"/>
<path d="M59.1288 109.698L75.0442 111.615V111.948L59.0835 110.015C58.9929 110 58.9325 109.924 58.9476 109.834C58.9476 109.743 59.0382 109.683 59.1288 109.698Z" fill="#064298"/>
<path d="M59.1288 113.473L75.0442 115.089V115.406L59.0835 113.79C58.9929 113.79 58.9325 113.7 58.9476 113.609C58.9476 113.518 59.0382 113.458 59.1288 113.473Z" fill="#064298"/>
<path d="M59.1288 105.953L75.0442 108.158V108.49L59.0835 106.285C58.9929 106.27 58.9325 106.195 58.9476 106.104C58.9476 106.014 59.0382 105.953 59.1288 105.953Z" fill="#064298"/>
<path d="M58.9476 98.5388C58.9627 98.4482 59.0382 98.3878 59.1288 98.418L75.0442 101.242V101.574L59.0684 98.7351C58.9929 98.72 58.9325 98.6294 58.9476 98.5388Z" fill="#064298"/>
<path d="M58.9482 94.7788C58.9633 94.6882 59.0539 94.6278 59.1445 94.6429L75.0448 97.7837V98.1159L59.069 94.9751C58.9784 94.9449 58.9331 94.8694 58.9482 94.7788Z" fill="#064298"/>
<path d="M58.9492 124.919C58.9492 124.828 59.0247 124.752 59.1153 124.768L75.0458 125.462V125.794L59.1002 125.085C59.0096 125.085 58.9341 125.009 58.9492 124.919Z" fill="#064298"/>
<path d="M59.1288 102.178L75.0442 104.7V105.032L59.0835 102.495C58.9929 102.48 58.9325 102.405 58.9476 102.314C58.9627 102.223 59.0382 102.163 59.1288 102.178Z" fill="#064298"/>
<path d="M64.8681 93.9611L61.2441 93.2061V92.6172L64.8681 93.3722V93.9611Z" fill="#AEDBFF"/>
<path d="M64.8681 95.0612L61.2441 94.3213V93.7324L64.8681 94.4723V95.0612Z" fill="#AEDBFF"/>
<path d="M64.8681 98.7162L61.2441 98.0518V97.4629L64.8681 98.1273V98.7162Z" fill="#AEDBFF"/>
<path d="M64.8681 97.6161L61.2441 96.9366V96.3477L64.8681 97.0423V97.6161Z" fill="#AEDBFF"/>
<path d="M64.8681 119.541L61.2441 119.269V118.695L64.8681 118.967V119.541Z" fill="#AEDBFF"/>
<path d="M64.8681 120.645L61.2441 120.388V119.814L64.8681 120.071V120.645Z" fill="#AEDBFF"/>
<path d="M64.8681 115.886L61.2441 115.554V114.965L64.8681 115.312V115.886Z" fill="#AEDBFF"/>
<path d="M64.8681 116.99L61.2441 116.673V116.084L64.8681 116.416V116.99Z" fill="#AEDBFF"/>
<path d="M64.8681 127.377V127.95L61.2441 127.83V127.256L64.8681 127.377Z" fill="#AEDBFF"/>
<path d="M64.8681 126.848L61.2441 126.712V126.139L64.8681 126.275V126.848Z" fill="#AEDBFF"/>
<path d="M64.8681 124.296L61.2441 124.115V123.541L64.8681 123.722V124.296Z" fill="#AEDBFF"/>
<path d="M64.8681 123.194L61.2441 122.998V122.424L64.8681 122.62V123.194Z" fill="#AEDBFF"/>
<path d="M64.8681 104.924L61.2441 104.38V103.791L64.8681 104.35V104.924Z" fill="#AEDBFF"/>
<path d="M64.8681 106.028L61.2441 105.499V104.91L64.8681 105.439V106.028Z" fill="#AEDBFF"/>
<path d="M64.8681 101.271L61.2441 100.652V100.078L64.8681 100.697V101.271Z" fill="#AEDBFF"/>
<path d="M64.8681 102.371L61.2441 101.767V101.193L64.8681 101.782V102.371Z" fill="#AEDBFF"/>
<path d="M64.8681 108.577L61.2441 108.093V107.52L64.8681 108.003V108.577Z" fill="#AEDBFF"/>
<path d="M64.8681 112.231L61.2441 111.824V111.25L64.8681 111.658V112.231Z" fill="#AEDBFF"/>
<path d="M64.8681 113.334L61.2441 112.941V112.367L64.8681 112.76V113.334Z" fill="#AEDBFF"/>
<path d="M64.8681 109.679L61.2441 109.211V108.637L64.8681 109.09V109.679Z" fill="#AEDBFF"/>
<path d="M70.4375 105.201L74.8014 105.85V106.892V107.33V107.481L70.4375 106.847V106.681V106.258V105.201Z" fill="#51ABF5"/>
<path d="M70.4375 108.752L74.8014 109.326V110.368V110.806V110.941L70.4375 110.383V110.232V109.809V108.752Z" fill="#51ABF5"/>
<path d="M70.4375 98.0898L74.8014 98.9203V99.9622V100.325V100.551L70.4375 99.7508V99.4942V99.1619V98.0898Z" fill="#51ABF5"/>
<path d="M70.4375 101.652L74.8014 102.392V103.434V103.797V104.008L70.4375 103.298V103.042V102.709V101.652Z" fill="#51ABF5"/>
<path d="M70.4375 112.301L74.8014 112.784V113.826V114.264V114.4L70.4375 113.932V113.781V113.358V112.301Z" fill="#51ABF5"/>
<path d="M70.4375 126.492L74.8014 126.643V127.685V128.123V128.259L70.4375 128.123V127.972V127.549V126.492Z" fill="#51ABF5"/>
<path d="M70.4375 122.943L74.8014 123.185V124.227V124.665V124.801L70.4375 124.574V124.423V124V122.943Z" fill="#51ABF5"/>
<path d="M74.8014 95.4621V96.504V96.8664V97.0778L70.4375 96.202V95.9453V95.6131V94.541L74.8014 95.4621Z" fill="#51ABF5"/>
<path d="M70.4375 115.846L74.8014 116.253V117.295V117.733V117.869L70.4375 117.477V117.326V116.903V115.846Z" fill="#51ABF5"/>
<path d="M70.4375 119.396L74.8014 119.714V120.755V121.193V121.329L70.4375 121.027V120.876V120.453V119.396Z" fill="#51ABF5"/>
<path d="M69.9111 121.009L69.4883 120.978V119.348L69.9111 119.393V121.009Z" fill="#072C62"/>
<path d="M67.8418 124.468V122.822L68.2646 122.852V124.483L67.8418 124.468Z" fill="#072C62"/>
<path d="M67.8418 117.266V115.635L68.2646 115.665V117.311L67.8418 117.266Z" fill="#072C62"/>
<path d="M69.0835 124.527L68.6758 124.497V122.881L69.0835 122.896V124.527Z" fill="#072C62"/>
<path d="M67.8418 120.857V119.227L68.2646 119.257V120.888L67.8418 120.857Z" fill="#072C62"/>
<path d="M69.9111 124.56L69.4883 124.545V122.93L69.9111 122.945V124.56Z" fill="#072C62"/>
<path d="M68.6758 120.918V119.287L69.0835 119.317V120.948L68.6758 120.918Z" fill="#072C62"/>
<path d="M68.6758 101.379L69.0835 101.454V103.085L68.6758 103.01V101.379Z" fill="#061CE4"/>
<path d="M67.8418 113.672V112.041L68.2646 112.086V113.717L67.8418 113.672Z" fill="#072C62"/>
<path d="M69.4883 101.516L69.9111 101.591V103.222L69.4883 103.146V101.516Z" fill="#072C62"/>
<path d="M67.8418 101.24L68.2646 101.301V102.947L67.8418 102.871V101.24Z" fill="#072C62"/>
<path d="M67.8418 110.076V108.43L68.2646 108.49V110.121L67.8418 110.076Z" fill="#072C62"/>
<path d="M67.8418 106.467V104.836L68.2646 104.896V106.527L67.8418 106.467Z" fill="#061CE4"/>
<path d="M68.6758 104.959L69.0835 105.019V106.65L68.6758 106.59V104.959Z" fill="#072C62"/>
<path d="M69.4883 117.416V115.785L69.9111 115.83V117.446L69.4883 117.416Z" fill="#072C62"/>
<path d="M69.4883 108.658L69.9111 108.704V110.334L69.4883 110.274V108.658Z" fill="#072C62"/>
<path d="M69.4883 113.836V112.221L69.9111 112.266V113.882L69.4883 113.836Z" fill="#072C62"/>
<path d="M68.6758 110.181V108.535L69.0835 108.596V110.226L68.6758 110.181Z" fill="#072C62"/>
<path d="M69.4883 105.096L69.9111 105.156V106.772L69.4883 106.711V105.096Z" fill="#072C62"/>
<path d="M68.6758 113.762V112.131L69.0835 112.176V113.807L68.6758 113.762Z" fill="#061CE4"/>
<path d="M68.6758 117.342V115.711L69.0835 115.756V117.372L68.6758 117.342Z" fill="#072C62"/>
<path d="M66.1973 117.128V115.467L66.6201 115.512V117.158L66.1973 117.128Z" fill="#072C62"/>
<path d="M66.1973 109.867V108.221L66.6201 108.266V109.912L66.1973 109.867Z" fill="#072C62"/>
<path d="M66.1973 106.241V104.58L66.6201 104.64V106.301L66.1973 106.241Z" fill="#072C62"/>
<path d="M66.1973 98.9794V97.3184L66.6201 97.409V99.0549L66.1973 98.9794Z" fill="#072C62"/>
<path d="M66.1973 113.488V111.842L66.6201 111.887V113.533L66.1973 113.488Z" fill="#072C62"/>
<path d="M66.1973 102.603V100.957L66.6201 101.033V102.678L66.1973 102.603Z" fill="#072C62"/>
<path d="M66.1973 128.015V126.369L66.6201 126.384V128.015H66.1973Z" fill="#072C62"/>
<path d="M66.1973 124.378V122.732L66.6201 122.763V124.409L66.1973 124.378Z" fill="#072C62"/>
<path d="M66.1973 120.753V119.107L66.6201 119.138V120.784L66.1973 120.753Z" fill="#072C62"/>
<path d="M69.4922 96.0195V94.3887L69.915 94.4793V96.095L69.4922 96.0195Z" fill="#061CE4"/>
<path d="M67.0293 95.5204V93.8594L67.437 93.95V95.5959L67.0293 95.5204Z" fill="#072C62"/>
<path d="M66.1973 95.3544V93.6934L66.6201 93.784V95.4299L66.1973 95.3544Z" fill="#072C62"/>
<path d="M68.6758 95.8529V94.207L69.0835 94.2976V95.9284L68.6758 95.8529Z" fill="#072C62"/>
<path d="M67.8418 95.6889V94.043L68.2646 94.1336V95.7644L67.8418 95.6889Z" fill="#061CE4"/>
<path d="M68.2646 126.445V128.076L67.8418 128.06V126.43L68.2646 126.445Z" fill="#072C62"/>
<path d="M67.0293 128.031V126.4L67.437 126.415V128.046L67.0293 128.031Z" fill="#072C62"/>
<path d="M69.0835 126.474V128.09H68.6758V126.459L69.0835 126.474Z" fill="#072C62"/>
<path d="M67.0293 124.421V122.775L67.437 122.806V124.436L67.0293 124.421Z" fill="#072C62"/>
<path d="M69.4883 97.9512L69.9111 98.0267V99.6575L69.4883 99.582V97.9512Z" fill="#072C62"/>
<path d="M69.9111 126.505V128.121L69.4883 128.106V126.49L69.9111 126.505Z" fill="#072C62"/>
<path d="M67.0293 120.814V119.168L67.437 119.198V120.844L67.0293 120.814Z" fill="#061CE4"/>
<path d="M67.8418 97.6348L68.2646 97.7103V99.3562L67.8418 99.2807V97.6348Z" fill="#072C62"/>
<path d="M67.0293 102.736V101.09L67.437 101.165V102.811L67.0293 102.736Z" fill="#061CE4"/>
<path d="M67.0293 97.4844L67.437 97.5599V99.2058L67.0293 99.1303V97.4844Z" fill="#072C62"/>
<path d="M68.6758 97.7988L69.0835 97.8743V99.5051L68.6758 99.4296V97.7988Z" fill="#061CE4"/>
<path d="M67.0293 113.579V111.934L67.437 111.979V113.625L67.0293 113.579Z" fill="#072C62"/>
<path d="M67.0293 106.365V104.719L67.437 104.779V106.425L67.0293 106.365Z" fill="#072C62"/>
<path d="M67.0293 117.189V115.559L67.437 115.589V117.235L67.0293 117.189Z" fill="#072C62"/>
<path d="M67.0293 109.97V108.324L67.437 108.385V110.015L67.0293 109.97Z" fill="#072C62"/>
<g style="mix-blend-mode:screen" opacity="0.7">
<g style="mix-blend-mode:screen">
<g style="mix-blend-mode:screen">
<path d="M63.2046 90.6738L66.9947 91.5194L59.5957 100.851V95.5511L63.2046 90.6738Z" fill="#1555B8"/>
</g>
</g>
<g style="mix-blend-mode:screen">
<g style="mix-blend-mode:screen">
<path d="M59.5957 112.627C65.8773 105.772 71.8116 99.2789 76.9003 93.707L77.3835 93.8278V111.54L59.5957 126.383V112.627Z" fill="#1555B8"/>
</g>
</g>
</g>
<path d="M74.3369 132.019H72.7363V88.3496H74.3369V132.019Z" fill="#093472"/>
<path d="M139.885 132.021H116.48V80.3184L139.885 85.7997V132.021Z" fill="#064298"/>
<path d="M115.802 80.3652V132.022H112.57V81.9356L115.802 80.3652Z" fill="#064298"/>
<path d="M118.156 128.229V83.1855L138.632 87.7608V128.727L118.156 128.229Z" fill="#2A73DE"/>
<path d="M137.982 88.1519V131.096H136.623V88.6804L118.08 84.6638V83.7578L137.982 88.1519Z" fill="#064298"/>
<path d="M117.443 115.241C117.458 115.136 117.549 115.045 117.655 115.06L135.85 116.57V116.948L117.625 115.438C117.519 115.438 117.443 115.332 117.443 115.241Z" fill="#064298"/>
<path d="M117.443 119.619C117.458 119.513 117.549 119.438 117.655 119.438L135.85 120.585V120.963L117.625 119.815C117.519 119.815 117.443 119.724 117.443 119.619Z" fill="#064298"/>
<path d="M117.655 110.664L135.85 112.506V112.899L117.625 111.042C117.519 111.026 117.443 110.936 117.443 110.83C117.458 110.724 117.549 110.649 117.655 110.664Z" fill="#064298"/>
<path d="M117.655 106.285L135.851 108.475V108.867L117.61 106.663C117.519 106.663 117.444 106.557 117.459 106.451C117.459 106.361 117.565 106.285 117.655 106.285Z" fill="#064298"/>
<path d="M117.671 101.904L135.851 104.441V104.819L117.61 102.282C117.505 102.267 117.444 102.176 117.459 102.07C117.459 101.965 117.565 101.889 117.671 101.904Z" fill="#064298"/>
<path d="M117.46 93.3003C117.475 93.1946 117.566 93.1191 117.671 93.1493L135.852 96.3807V96.7733L117.611 93.5117C117.505 93.4966 117.43 93.406 117.46 93.3003Z" fill="#064298"/>
<path d="M117.46 88.9052C117.475 88.7995 117.581 88.7391 117.671 88.7542L135.852 92.348V92.7407L117.611 89.1317C117.505 89.1166 117.43 89.0109 117.46 88.9052Z" fill="#064298"/>
<path d="M117.671 97.498L135.852 100.427V100.805L117.611 97.8755C117.505 97.8604 117.43 97.7698 117.46 97.6641C117.475 97.5584 117.566 97.4829 117.671 97.498Z" fill="#064298"/>
<path d="M117.443 124.013C117.458 123.907 117.549 123.817 117.655 123.832L135.85 124.617V124.994L117.625 124.209C117.534 124.194 117.443 124.119 117.443 124.013Z" fill="#064298"/>
<path d="M119.865 122.4L123.565 122.582V123.246L119.865 123.05V122.4Z" fill="#AEDBFF"/>
<path d="M119.865 125.434L123.565 125.569V126.234L119.865 126.098V125.434Z" fill="#AEDBFF"/>
<path d="M119.865 121.1L123.565 121.311V121.96L119.865 121.749V121.1Z" fill="#AEDBFF"/>
<path d="M119.865 118.064L123.565 118.321V118.97L119.865 118.714V118.064Z" fill="#AEDBFF"/>
<path d="M119.865 126.748L123.565 126.854V127.503L119.865 127.397V126.748Z" fill="#AEDBFF"/>
<path d="M119.865 95.0547L123.565 95.6738V96.3382L119.865 95.704V95.0547Z" fill="#AEDBFF"/>
<path d="M119.865 92.002L123.565 92.6815V93.3459L119.865 92.6664V92.3644V92.002Z" fill="#AEDBFF"/>
<path d="M119.865 96.3535L123.565 96.9575V97.6219L119.865 97.0179V96.3535Z" fill="#AEDBFF"/>
<path d="M119.865 99.3867L123.565 99.9454V100.61L119.865 100.051V99.3867Z" fill="#AEDBFF"/>
<path d="M123.565 89.0893L119.865 88.3343V87.6699L123.565 88.4249V89.0893Z" fill="#AEDBFF"/>
<path d="M119.865 90.7051L123.565 91.4148V92.0641L119.865 91.3695V90.7051Z" fill="#AEDBFF"/>
<path d="M123.565 87.8051L119.865 87.035V86.3555L123.565 87.1407V87.8051Z" fill="#AEDBFF"/>
<path d="M119.865 109.383L123.565 109.775V110.425L119.865 110.032V109.383Z" fill="#AEDBFF"/>
<path d="M119.865 112.418L123.565 112.765V113.415L119.865 113.067V112.418Z" fill="#AEDBFF"/>
<path d="M119.865 116.75L123.565 117.037V117.686L119.865 117.414V116.75Z" fill="#AEDBFF"/>
<path d="M119.865 113.717L123.565 114.049V114.698L119.865 114.366V113.717Z" fill="#AEDBFF"/>
<path d="M119.865 103.736L123.565 104.22V104.884L119.865 104.386V103.736Z" fill="#AEDBFF"/>
<path d="M119.865 100.686L123.565 101.229V101.894L119.865 101.35V100.686Z" fill="#AEDBFF"/>
<path d="M119.865 105.033L123.565 105.501V106.166L119.865 105.683V105.033Z" fill="#AEDBFF"/>
<path d="M119.865 108.066L123.565 108.489V109.139L119.865 108.731V108.066Z" fill="#AEDBFF"/>
<path d="M131.154 101.109L135.609 101.789V102.997V103.314V103.646L131.154 102.997V102.634V102.348V101.109Z" fill="#51ABF5"/>
<path d="M131.154 109.354L135.609 109.867V111.075V111.392V111.724L131.154 111.256V110.879V110.592V109.354Z" fill="#51ABF5"/>
<path d="M131.154 105.23L135.609 105.819V107.027V107.344V107.692L131.154 107.118V106.756V106.469V105.23Z" fill="#51ABF5"/>
<path d="M131.154 92.8496L135.609 93.6952V94.9183V95.2354V95.5827L131.154 94.7522V94.3898V94.0878V92.8496Z" fill="#51ABF5"/>
<path d="M131.154 96.9863L135.609 97.7413V98.9493V99.2664V99.6137L131.154 98.8738V98.5114V98.2245V96.9863Z" fill="#51ABF5"/>
<path d="M131.154 125.857L135.609 126.024V127.232V127.549V127.881L131.154 127.745V127.383V127.096V125.857Z" fill="#51ABF5"/>
<path d="M131.154 121.779L135.609 122.036V123.199V123.455V123.848L131.154 123.621V123.199V122.972V121.779Z" fill="#51ABF5"/>
<path d="M135.609 89.6628V90.8708V91.1879V91.5352L131.154 90.6292V90.2668V89.9648V88.7266L135.609 89.6628Z" fill="#51ABF5"/>
<path d="M131.154 113.477L135.609 113.899V115.122V115.424V115.772L131.154 115.379V115.002V114.715V113.477Z" fill="#51ABF5"/>
<path d="M131.154 117.613L135.609 117.945V119.153V119.471V119.803L131.154 119.501V119.123V118.851V117.613Z" fill="#51ABF5"/>
<path d="M129.51 96.7285L129.948 96.804V98.7066L129.51 98.6311V96.7285Z" fill="#072C62"/>
<path d="M129.948 119.443L129.51 119.413V117.525L129.948 117.556V119.443Z" fill="#072C62"/>
<path d="M127.125 119.245L126.688 119.215V117.312L127.125 117.343V119.245Z" fill="#072C62"/>
<path d="M128.057 119.304L127.619 119.289V117.371L128.057 117.416V119.304Z" fill="#072C62"/>
<path d="M126.173 119.186L125.75 119.156V117.238L126.173 117.268V119.186Z" fill="#072C62"/>
<path d="M129.012 119.38L128.574 119.35V117.447L129.012 117.477V119.38Z" fill="#061CE4"/>
<path d="M128.574 96.5801L129.012 96.6556V98.5431L128.574 98.4827V96.5801Z" fill="#072C62"/>
<path d="M129.012 123.547L128.574 123.516V121.629L129.012 121.644V123.547Z" fill="#072C62"/>
<path d="M126.173 123.398L125.75 123.383V121.465L126.173 121.48V123.398Z" fill="#072C62"/>
<path d="M127.623 96.4121L128.061 96.4876V98.3902L127.623 98.3298V96.4121Z" fill="#061CE4"/>
<path d="M128.057 123.501L127.619 123.471V121.568L128.057 121.599V123.501Z" fill="#072C62"/>
<path d="M127.125 123.443L126.688 123.427V121.51L127.125 121.54V123.443Z" fill="#072C62"/>
<path d="M126.688 96.2461L127.125 96.3216V98.2393L126.688 98.1638V96.2461Z" fill="#072C62"/>
<path d="M125.75 96.082L126.173 96.1575V98.0903L125.75 98.0148V96.082Z" fill="#072C62"/>
<path d="M126.686 104.672L127.123 104.732V106.635L126.686 106.59V104.672Z" fill="#061CE4"/>
<path d="M125.75 104.535L126.173 104.596V106.528L125.75 106.468V104.535Z" fill="#072C62"/>
<path d="M127.619 104.795L128.057 104.855V106.758L127.619 106.713V104.795Z" fill="#072C62"/>
<path d="M128.574 104.932L129.012 104.992V106.88L128.574 106.834V104.932Z" fill="#061CE4"/>
<path d="M129.51 105.051L129.948 105.111V106.999L129.51 106.938V105.051Z" fill="#072C62"/>
<path d="M126.173 114.971L125.75 114.926V113.008L126.173 113.038V114.971Z" fill="#072C62"/>
<path d="M125.75 108.781L126.173 108.827V110.744L125.75 110.699V108.781Z" fill="#072C62"/>
<path d="M127.125 110.85L126.688 110.804V108.887L127.125 108.932V110.85Z" fill="#072C62"/>
<path d="M128.057 110.94L127.619 110.895V108.992L128.057 109.037V110.94Z" fill="#072C62"/>
<path d="M129.948 111.151L129.51 111.106V109.203L129.948 109.264V111.151Z" fill="#072C62"/>
<path d="M129.012 111.044L128.574 110.998V109.096L129.012 109.141V111.044Z" fill="#072C62"/>
<path d="M127.123 115.046L126.686 115V113.098L127.123 113.128V115.046Z" fill="#061CE4"/>
<path d="M129.948 115.289L129.51 115.259V113.371L129.948 113.401V115.289Z" fill="#061CE4"/>
<path d="M129.51 100.898L129.948 100.959V102.846L129.51 102.786V100.898Z" fill="#061CE4"/>
<path d="M126.688 100.459L127.125 100.519V102.437L126.688 102.377V100.459Z" fill="#072C62"/>
<path d="M125.75 100.311L126.173 100.386V102.304L125.75 102.243V100.311Z" fill="#072C62"/>
<path d="M128.574 100.748L129.012 100.824V102.711L128.574 102.651V100.748Z" fill="#072C62"/>
<path d="M127.619 100.611L128.057 100.672V102.574L127.619 102.514V100.611Z" fill="#072C62"/>
<path d="M129.948 123.593L129.51 123.563V121.676L129.948 121.706V123.593Z" fill="#061CE4"/>
<path d="M129.012 115.212L128.574 115.167V113.279L129.012 113.309V115.212Z" fill="#061CE4"/>
<path d="M128.057 115.122L127.619 115.092V113.189L128.057 113.22V115.122Z" fill="#072C62"/>
<path d="M129.51 90.3284V88.4258L129.948 88.5164V90.4039L129.51 90.3284Z" fill="#061CE4"/>
<path d="M129.948 125.858V127.731L129.51 127.716V125.828L129.948 125.858Z" fill="#072C62"/>
<path d="M129.012 125.812V127.699H128.574V125.797L129.012 125.812Z" fill="#072C62"/>
<path d="M126.688 89.7551V87.8223L127.125 87.9129V89.8457L126.688 89.7551Z" fill="#072C62"/>
<path d="M128.574 90.1311V88.2285L129.012 88.3191V90.2217L128.574 90.1311Z" fill="#072C62"/>
<path d="M125.75 89.5578V87.625L126.173 87.7156V89.6484L125.75 89.5578Z" fill="#072C62"/>
<path d="M127.619 89.9353V88.0176L128.057 88.1082V90.0259L127.619 89.9353Z" fill="#072C62"/>
<path d="M125.75 91.8535L126.173 91.9441V93.8618L125.75 93.7863V91.8535Z" fill="#072C62"/>
<path d="M126.688 92.0352L127.125 92.1258V94.0435L126.688 93.968V92.0352Z" fill="#072C62"/>
<path d="M127.619 92.2148L128.057 92.3054V94.208L127.619 94.1325V92.2148Z" fill="#072C62"/>
<path d="M128.057 125.781V127.683L127.619 127.668V125.766L128.057 125.781Z" fill="#072C62"/>
<path d="M128.574 92.3965L129.012 92.4871V94.3897L128.574 94.2991V92.3965Z" fill="#072C62"/>
<path d="M129.51 92.5762L129.948 92.6668V94.5543L129.51 94.4788V92.5762Z" fill="#072C62"/>
<path d="M127.125 125.738V127.655L126.688 127.64V125.723L127.125 125.738Z" fill="#072C62"/>
<path d="M126.173 125.705V127.622L125.75 127.607V125.689L126.173 125.705Z" fill="#072C62"/>
<g style="mix-blend-mode:screen" opacity="0.7">
<g style="mix-blend-mode:screen">
<g style="mix-blend-mode:screen">
<path d="M138.573 113.117V126.088L133.469 128.61L118.098 128.232V125.227L138.573 113.117Z" fill="#1555B8"/>
</g>
</g>
<g style="mix-blend-mode:screen">
<g style="mix-blend-mode:screen">
<path d="M118.098 102.689L136.942 87.6191L138.573 87.9966V92.3303L118.098 107.763V102.689Z" fill="#1555B8"/>
</g>
</g>
<g style="mix-blend-mode:screen">
<g style="mix-blend-mode:screen">
<path d="M118.098 83.0879L132.307 86.2589L118.098 98.1577V83.0879Z" fill="#1555B8"/>
</g>
</g>
</g>
<path d="M111.786 132.019H84.9531V72.9023L111.786 79.1839V132.019Z" fill="#064298"/>
<path d="M73.5391 79.3349L84.1997 73.0684V132.019H73.5391V79.3349Z" fill="#064298"/>
<path d="M86.8574 127.415V76.166L110.338 81.4208V128.004L86.8574 127.415Z" fill="#2A73DE"/>
<path d="M109.673 81.8905V131.932H108.103V82.4794L86.7363 77.8437V76.832L109.673 81.8905Z" fill="#064298"/>
<path d="M85.9844 112.637C85.9995 112.517 86.1052 112.426 86.226 112.441L107.245 114.178V114.616L86.1807 112.864C86.0599 112.864 85.9844 112.758 85.9844 112.637Z" fill="#064298"/>
<path d="M85.9844 117.635C85.9995 117.514 86.0901 117.424 86.2109 117.424L107.245 118.753V119.191L86.1958 117.862C86.075 117.847 85.9844 117.741 85.9844 117.635Z" fill="#064298"/>
<path d="M86.2237 102.439L107.243 104.991V105.429L86.1784 102.877C86.0576 102.862 85.967 102.756 85.9821 102.635C85.9972 102.515 86.1029 102.424 86.2237 102.439Z" fill="#064298"/>
<path d="M86.2237 107.439L107.243 109.584V110.022L86.1784 107.877C86.0576 107.862 85.967 107.757 85.9821 107.636C85.9972 107.515 86.1029 107.439 86.2237 107.439Z" fill="#064298"/>
<path d="M86.2237 97.5039L107.243 100.418V100.856L86.1784 97.9267C86.0576 97.9116 85.967 97.8059 85.9821 97.6851C85.9972 97.5643 86.118 97.4737 86.2237 97.5039Z" fill="#064298"/>
<path d="M85.9824 87.6733C86.0126 87.5525 86.1183 87.477 86.2391 87.4921L107.243 91.2369V91.6899L86.1636 87.9149C86.0428 87.8998 85.9673 87.7941 85.9824 87.6733Z" fill="#064298"/>
<path d="M85.9824 82.6767C86.0126 82.5559 86.1183 82.4804 86.2391 82.5106L107.243 86.6631V87.101L86.1636 82.9334C86.0428 82.9183 85.9673 82.7975 85.9824 82.6767Z" fill="#064298"/>
<path d="M85.9844 122.618C85.9844 122.497 86.0901 122.406 86.2109 122.406L107.245 123.342V123.78L86.1958 122.844C86.075 122.844 85.9844 122.738 85.9844 122.618Z" fill="#064298"/>
<path d="M86.2391 92.4743L107.243 95.8265V96.2644L86.1636 92.9122C86.0428 92.8971 85.9673 92.7763 85.9824 92.6555C86.0126 92.5498 86.1183 92.4592 86.2391 92.4743Z" fill="#064298"/>
<path d="M93.7872 81.6026L89.0156 80.606V79.8359L93.7872 80.8325V81.6026Z" fill="#AEDBFF"/>
<path d="M93.7872 83.0529L89.0156 82.0865V81.3164L93.7872 82.2828V83.0529Z" fill="#AEDBFF"/>
<path d="M93.7872 87.8993L89.0156 87.0235V86.2383L93.7872 87.1292V87.8993Z" fill="#AEDBFF"/>
<path d="M93.7872 86.451L89.0156 85.545V84.7598L93.7872 85.6809V86.451Z" fill="#AEDBFF"/>
<path d="M93.7872 115.502L89.0156 115.139V114.369L93.7872 114.732V115.502Z" fill="#AEDBFF"/>
<path d="M93.7872 116.952L89.0156 116.62V115.865L93.7872 116.197V116.952Z" fill="#AEDBFF"/>
<path d="M93.7872 110.657L89.0156 110.204V109.449L93.7872 109.902V110.657Z" fill="#AEDBFF"/>
<path d="M93.7872 112.106L89.0156 111.683V110.928L93.7872 111.351V112.106Z" fill="#AEDBFF"/>
<path d="M93.7872 125.874V126.629L89.0156 126.478V125.723L93.7872 125.874Z" fill="#AEDBFF"/>
<path d="M93.7872 125.18L89.0156 124.999V124.244L93.7872 124.425V125.18Z" fill="#AEDBFF"/>
<path d="M93.7872 121.799L89.0156 121.557V120.787L93.7872 121.029V121.799Z" fill="#AEDBFF"/>
<path d="M93.7872 120.333L89.0156 120.077V119.307L93.7872 119.578V120.333Z" fill="#AEDBFF"/>
<path d="M93.7872 96.1297L89.0156 95.4049V94.6348L93.7872 95.3596V96.1297Z" fill="#AEDBFF"/>
<path d="M93.7872 97.5799L89.0156 96.8853V96.1152L93.7872 96.8098V97.5799Z" fill="#AEDBFF"/>
<path d="M93.7872 91.2808L89.0156 90.4654V89.6953L93.7872 90.5107V91.2808Z" fill="#AEDBFF"/>
<path d="M93.7872 92.7462L89.0156 91.9459V91.1758L93.7872 91.9761V92.7462Z" fill="#AEDBFF"/>
<path d="M93.7872 100.977L89.0156 100.342V99.5723L93.7872 100.206V100.977Z" fill="#AEDBFF"/>
<path d="M93.7872 105.808L89.0156 105.265V104.51L93.7872 105.053V105.808Z" fill="#AEDBFF"/>
<path d="M93.7872 107.274L89.0156 106.745V105.99L93.7872 106.504V107.274Z" fill="#AEDBFF"/>
<path d="M93.7872 102.427L89.0156 101.823V101.053L93.7872 101.657V102.427Z" fill="#AEDBFF"/>
<path d="M101.154 96.4766L106.907 97.3524V98.7265V99.3154V99.4966L101.154 98.6661V98.4396V97.896V96.4766Z" fill="#51ABF5"/>
<path d="M101.154 101.188L106.907 101.943V103.332V103.906V104.087L101.154 103.362V103.151V102.592V101.188Z" fill="#51ABF5"/>
<path d="M101.154 87.0703L106.907 88.1726V89.5467V90.0299V90.3168L101.154 89.2598V88.9276V88.4897V87.0703Z" fill="#51ABF5"/>
<path d="M101.154 91.7812L106.907 92.7627V94.1369V94.62V94.907L101.154 93.9557V93.6385V93.1855V91.7812Z" fill="#51ABF5"/>
<path d="M101.154 105.885L106.907 106.534V107.923V108.497V108.678L101.154 108.059V107.848V107.304V105.885Z" fill="#51ABF5"/>
<path d="M101.154 124.695L106.907 124.907V126.281V126.855V127.036L101.154 126.87V126.643V126.1V124.695Z" fill="#51ABF5"/>
<path d="M101.154 119.986L106.907 120.319V121.693V122.266V122.448L101.154 122.161V121.949V121.406V119.986Z" fill="#51ABF5"/>
<path d="M106.907 83.581V84.9551V85.4383V85.7252L101.154 84.5625V84.2303V83.7773V82.373L106.907 83.581Z" fill="#51ABF5"/>
<path d="M101.154 110.596L106.907 111.139V112.513V113.087V113.268L101.154 112.77V112.544V112V110.596Z" fill="#51ABF5"/>
<path d="M101.154 115.289L106.907 115.727V117.101V117.675V117.856L101.154 117.463V117.252V116.693V115.289Z" fill="#51ABF5"/>
<path d="M100.45 117.434L99.9062 117.388V115.244L100.45 115.289V117.434Z" fill="#072C62"/>
<path d="M97.7441 122.011V119.852L98.2877 119.882V122.041L97.7441 122.011Z" fill="#072C62"/>
<path d="M97.7441 112.481V110.307L98.2877 110.367V112.526L97.7441 112.481Z" fill="#072C62"/>
<path d="M99.3605 122.088L98.832 122.073V119.914L99.3605 119.944V122.088Z" fill="#072C62"/>
<path d="M97.7441 117.239V115.08L98.2877 115.125V117.285L97.7441 117.239Z" fill="#072C62"/>
<path d="M100.45 122.145L99.9062 122.115V119.971L100.45 120.001V122.145Z" fill="#072C62"/>
<path d="M98.832 117.314V115.154L99.3605 115.2V117.359L98.832 117.314Z" fill="#072C62"/>
<path d="M98.8301 91.418L99.3586 91.5237V93.683L98.8301 93.5924V91.418Z" fill="#061CE4"/>
<path d="M97.7441 107.712V105.537L98.2877 105.613V107.772L97.7441 107.712Z" fill="#072C62"/>
<path d="M99.9062 91.6152L100.45 91.7058V93.8651L99.9062 93.7745V91.6152Z" fill="#072C62"/>
<path d="M97.7441 91.2383L98.2877 91.3289V93.5033L97.7441 93.4127V91.2383Z" fill="#072C62"/>
<path d="M97.7441 102.939V100.779L98.2877 100.84V103.014L97.7441 102.939Z" fill="#072C62"/>
<path d="M97.7461 98.1822V96.0078L98.2897 96.0833V98.2577L97.7461 98.1822Z" fill="#061CE4"/>
<path d="M98.832 96.1738L99.3605 96.2493V98.4086L98.832 98.3331V96.1738Z" fill="#072C62"/>
<path d="M99.9062 112.664V110.52L100.45 110.565V112.709L99.9062 112.664Z" fill="#072C62"/>
<path d="M99.9062 101.066L100.45 101.142V103.286L99.9062 103.211V101.066Z" fill="#072C62"/>
<path d="M99.9062 107.937V105.793L100.45 105.853V107.998L99.9062 107.937Z" fill="#072C62"/>
<path d="M98.832 103.075V100.916L99.3605 100.992V103.151L98.832 103.075Z" fill="#072C62"/>
<path d="M99.9062 96.3398L100.45 96.4153V98.5746L99.9062 98.4991V96.3398Z" fill="#072C62"/>
<path d="M98.8301 107.833V105.674L99.3586 105.734V107.878L98.8301 107.833Z" fill="#061CE4"/>
<path d="M98.832 112.573V110.414L99.3605 110.459V112.619L98.832 112.573Z" fill="#072C62"/>
<path d="M95.5703 112.285V110.096L96.1139 110.156V112.331L95.5703 112.285Z" fill="#072C62"/>
<path d="M95.5703 102.666V100.477L96.1139 100.552V102.742L95.5703 102.666Z" fill="#072C62"/>
<path d="M95.5703 97.8653V95.6758L96.1139 95.7513V97.9408L95.5703 97.8653Z" fill="#072C62"/>
<path d="M95.5703 88.2461V86.0566L96.1139 86.1623V88.3518L95.5703 88.2461Z" fill="#072C62"/>
<path d="M95.5703 107.484V105.295L96.1139 105.355V107.545L95.5703 107.484Z" fill="#072C62"/>
<path d="M95.5703 93.062V90.8574L96.1139 90.948V93.1375L95.5703 93.062Z" fill="#072C62"/>
<path d="M95.5703 126.706V124.531L96.1139 124.546V126.736L95.5703 126.706Z" fill="#072C62"/>
<path d="M95.5703 121.906V119.717L96.1139 119.747V121.936L95.5703 121.906Z" fill="#072C62"/>
<path d="M95.5703 117.104V114.914L96.1139 114.959V117.134L95.5703 117.104Z" fill="#072C62"/>
<path d="M99.9023 84.3214V82.1621L100.446 82.2678V84.4271L99.9023 84.3214Z" fill="#061CE4"/>
<path d="M96.6562 83.6563V81.4668L97.1998 81.5876V83.7771L96.6562 83.6563Z" fill="#072C62"/>
<path d="M95.5703 83.4448V81.2402L96.1139 81.361V83.5505L95.5703 83.4448Z" fill="#072C62"/>
<path d="M98.832 84.0929V81.9336L99.3605 82.0393V84.2137L98.832 84.0929Z" fill="#072C62"/>
<path d="M97.7461 83.8848V81.6953L98.2897 81.8161V83.9905L97.7461 83.8848Z" fill="#061CE4"/>
<path d="M98.2877 124.638V126.797L97.7441 126.782V124.607L98.2877 124.638Z" fill="#072C62"/>
<path d="M96.6562 126.753V124.578L97.1998 124.593V126.768L96.6562 126.753Z" fill="#072C62"/>
<path d="M99.3605 124.667V126.827L98.832 126.812V124.652L99.3605 124.667Z" fill="#072C62"/>
<path d="M96.6562 121.965V119.775L97.1998 119.821V121.98L96.6562 121.965Z" fill="#072C62"/>
<path d="M99.9062 86.8867L100.45 86.9924V89.1366L99.9062 89.046V86.8867Z" fill="#072C62"/>
<path d="M100.45 124.712V126.857L99.9062 126.841V124.697L100.45 124.712Z" fill="#072C62"/>
<path d="M96.6562 117.163V114.988L97.1998 115.034V117.208L96.6562 117.163Z" fill="#061CE4"/>
<path d="M97.7441 86.4648L98.2877 86.5705V88.7449L97.7441 88.6392V86.4648Z" fill="#072C62"/>
<path d="M96.6562 93.2291V91.0547L97.1998 91.1453V93.3197L96.6562 93.2291Z" fill="#061CE4"/>
<path d="M96.6562 86.2539L97.1998 86.3596V88.5491L96.6562 88.4434V86.2539Z" fill="#072C62"/>
<path d="M98.8301 86.6758L99.3586 86.7815V88.9408L98.8301 88.8502V86.6758Z" fill="#061CE4"/>
<path d="M96.6562 107.59V105.416L97.1998 105.476V107.651L96.6562 107.59Z" fill="#072C62"/>
<path d="M96.6562 98.0142V95.8398L97.1998 95.9153V98.1048L96.6562 98.0142Z" fill="#072C62"/>
<path d="M96.6562 112.376V110.201L97.1998 110.262V112.436L96.6562 112.376Z" fill="#072C62"/>
<path d="M96.6562 102.803V100.629L97.1998 100.704V102.879L96.6562 102.803Z" fill="#072C62"/>
<path fill-rule="evenodd" clip-rule="evenodd" d="M80.5021 84.6525V91.5079C80.5021 91.523 80.487 91.5532 80.4719 91.5532L75.3983 93.6974C75.3983 93.6974 75.3933 93.6974 75.3832 93.6974C75.3731 93.6974 75.3681 93.6923 75.3681 93.6823C75.348 93.6722 75.3379 93.6621 75.3379 93.6521V87.1893C75.3379 87.1742 75.353 87.144 75.3681 87.144L80.4417 84.6072C80.4518 84.5971 80.4669 84.5971 80.487 84.6072C80.4971 84.6172 80.5021 84.6323 80.5021 84.6525ZM80.4115 91.4626V90.6019L75.957 92.5347V92.429L80.4115 90.4962V89.6204L75.957 91.5985V91.4928L80.4115 89.5147V88.6389L75.957 90.6774V90.5717L80.4115 88.5332V87.6574L75.957 89.7412V89.6355L80.4115 87.5517V86.6759L75.957 88.8201V88.7144L80.4115 86.5702V85.7095L75.957 87.8839V87.7782L80.4115 85.6038V84.728L75.4285 87.2346V93.5615L80.4115 91.4626Z" fill="#3384FA"/>
<path fill-rule="evenodd" clip-rule="evenodd" d="M80.487 115.003C80.4971 115.013 80.5021 115.029 80.5021 115.049V121.889C80.5021 121.919 80.487 121.949 80.4568 121.949L75.3832 122.417C75.3731 122.417 75.3631 122.412 75.353 122.402C75.3429 122.392 75.3379 122.377 75.3379 122.357V115.879C75.3379 115.864 75.353 115.834 75.3832 115.834L80.4568 114.988C80.4669 114.988 80.4769 114.993 80.487 115.003ZM80.4115 121.844V120.968L75.957 121.436V121.33L80.4115 120.877V119.986L75.957 120.5V120.409L80.4115 119.896V119.02L75.957 119.579V119.473L80.4115 118.914V118.038L75.957 118.642V118.552L80.4115 117.933V117.057L75.957 117.721V117.616L80.4115 116.951V116.075L75.957 116.77V116.664L80.4115 115.985V115.109L75.4285 115.94V122.297L80.4115 121.844Z" fill="#3384FA"/>
<path fill-rule="evenodd" clip-rule="evenodd" d="M80.487 99.8569C80.4971 99.867 80.5021 99.8821 80.5021 99.9022V106.742C80.5021 106.773 80.487 106.788 80.4719 106.803L75.3983 108.101C75.3983 108.101 75.3933 108.101 75.3832 108.101C75.3731 108.101 75.3631 108.096 75.353 108.086C75.3429 108.076 75.3379 108.061 75.3379 108.041V101.593C75.3379 101.563 75.353 101.548 75.3681 101.548L80.4417 99.8418C80.4618 99.8418 80.4769 99.8468 80.487 99.8569ZM80.4115 106.697V105.836L75.957 107.029V106.924L80.4115 105.731V104.855L75.957 106.093V106.003L80.4115 104.749V103.873L75.957 105.172V105.066L80.4115 103.768V102.892L75.957 104.236V104.145L80.4115 102.801V101.91L75.957 103.315V103.209L80.4115 101.82V100.944L75.957 102.379V102.288L80.4115 100.838V99.9626L75.4285 101.639V107.981L80.4115 106.697Z" fill="#3384FA"/>
<g style="mix-blend-mode:screen" opacity="0.7">
<g style="mix-blend-mode:screen">
<g style="mix-blend-mode:screen">
<path d="M110.379 113.397L91.7153 127.44L87.0645 127.319L110.379 108.686V113.397Z" fill="#1555B8"/>
</g>
</g>
<g style="mix-blend-mode:screen">
<g style="mix-blend-mode:screen">
<path d="M91.5949 77.2363L96.6081 78.3537L86.8535 90.7357V83.684L91.5949 77.2363Z" fill="#1555B8"/>
</g>
</g>
<g style="mix-blend-mode:screen">
<g style="mix-blend-mode:screen">
<path d="M86.8398 106.786C95.1564 97.6987 103.003 89.0947 109.729 81.7285L110.396 81.8795V105.337L86.8398 124.99V106.786Z" fill="#1555B8"/>
</g>
</g>
</g>
<path d="M164.906 132.017H144.158V86.793L164.906 91.6552V132.017Z" fill="#064298"/>
<path d="M143.541 86.8535V132.018H140.672V88.2427L143.541 86.8535Z" fill="#064298"/>
<path d="M145.668 128.933V89.3262L163.833 93.373V129.386L145.668 128.933Z" fill="#2A73DE"/>
<path d="M163.188 93.7063V131.154H161.964V94.1593L145.551 90.6108V89.8105L163.188 93.7063Z" fill="#064298"/>
<path d="M144.87 117.488C144.87 117.397 144.945 117.337 145.036 117.352L161.208 118.681V119.013L145.005 117.669C144.915 117.669 144.854 117.578 144.87 117.488Z" fill="#064298"/>
<path d="M144.871 121.352C144.871 121.262 144.947 121.186 145.037 121.201L161.209 122.228V122.56L145.022 121.518C144.931 121.518 144.856 121.443 144.871 121.352Z" fill="#064298"/>
<path d="M145.051 105.772L161.208 108.037V108.369L145.005 106.089C144.915 106.074 144.854 105.998 144.87 105.908C144.87 105.817 144.96 105.757 145.051 105.772Z" fill="#064298"/>
<path d="M145.051 109.621L161.208 111.584V111.916L145.005 109.953C144.915 109.938 144.854 109.863 144.87 109.772C144.87 109.681 144.96 109.621 145.051 109.621Z" fill="#064298"/>
<path d="M145.036 113.488L161.208 115.134V115.466L145.005 113.805C144.915 113.805 144.854 113.73 144.87 113.639C144.87 113.549 144.945 113.473 145.036 113.488Z" fill="#064298"/>
<path d="M144.871 125.219C144.871 125.129 144.947 125.053 145.037 125.068L161.209 125.778V126.11L145.022 125.385C144.931 125.385 144.856 125.31 144.871 125.219Z" fill="#064298"/>
<path d="M144.87 98.1909C144.885 98.1003 144.96 98.0399 145.051 98.055L161.208 100.939V101.271L144.99 98.3721C144.915 98.357 144.854 98.2664 144.87 98.1909Z" fill="#064298"/>
<path d="M145.051 101.907L161.208 104.489V104.821L145.005 102.239C144.915 102.224 144.854 102.133 144.87 102.043C144.885 101.952 144.96 101.892 145.051 101.907Z" fill="#064298"/>
<path d="M144.87 94.3257C144.885 94.2351 144.976 94.1747 145.051 94.1898L161.208 97.391V97.7232L144.991 94.5069C144.9 94.4918 144.855 94.4163 144.87 94.3257Z" fill="#064298"/>
<path d="M157.207 115.994L161.012 116.357V117.414V117.761V117.957L157.207 117.625V117.414V117.081V115.994Z" fill="#51ABF5"/>
<path d="M157.207 119.617L161.012 119.904V120.976V121.323V121.52L157.207 121.248V121.037V120.704V119.617Z" fill="#51ABF5"/>
<path d="M157.207 112.371L161.012 112.794V113.866V114.213V114.41L157.207 114.002V113.79V113.458V112.371Z" fill="#51ABF5"/>
<path d="M157.207 126.867L161.012 127.018V128.075V128.422V128.619L157.207 128.498V128.287V127.954V126.867Z" fill="#51ABF5"/>
<path d="M157.207 123.242L161.012 123.454V124.526V124.873V125.069L157.207 124.873V124.662V124.329V123.242Z" fill="#51ABF5"/>
<path d="M157.207 97.8594L161.012 98.5842V99.6563V100.004V100.2L157.207 99.5053V99.2788V98.9466V97.8594Z" fill="#51ABF5"/>
<path d="M157.207 108.746L161.012 109.244V110.316V110.664V110.86L157.207 110.377V110.165V109.833V108.746Z" fill="#51ABF5"/>
<path d="M161.012 95.0347V96.0917V96.4541V96.6504L157.207 95.8803V95.6538V95.3216V94.2344L161.012 95.0347Z" fill="#51ABF5"/>
<path d="M157.207 105.121L161.012 105.695V106.752V107.114V107.311L157.207 106.752V106.525V106.208V105.121Z" fill="#51ABF5"/>
<path d="M157.207 101.482L161.012 102.132V103.204V103.551V103.763L157.207 103.128V102.902V102.57V101.482Z" fill="#51ABF5"/>
<path d="M149.837 112.083L147.014 111.751V111.207L149.837 111.524V112.083Z" fill="#AEDBFF"/>
<path d="M149.837 108.308L147.014 107.93V107.387L149.837 107.764V108.308Z" fill="#AEDBFF"/>
<path d="M149.837 101.904L147.014 101.436V100.893L149.837 101.361V101.904Z" fill="#AEDBFF"/>
<path d="M149.837 109.439L147.014 109.077V108.533L149.837 108.896V109.439Z" fill="#AEDBFF"/>
<path d="M149.837 105.681L147.014 105.258V104.715L149.837 105.123V105.681Z" fill="#AEDBFF"/>
<path d="M149.837 97.013L147.014 96.4694V95.9258L149.837 96.4543V97.013Z" fill="#AEDBFF"/>
<path d="M149.837 100.773L147.014 100.29V99.7461L149.837 100.229V100.773Z" fill="#AEDBFF"/>
<path d="M149.837 94.3713L147.014 93.7975V93.2539L149.837 93.8277V94.3713Z" fill="#AEDBFF"/>
<path d="M149.837 98.1444L147.014 97.6159V97.0723L149.837 97.5857V98.1444Z" fill="#AEDBFF"/>
<path d="M149.837 104.548L147.014 104.11V103.566L149.837 103.989V104.548Z" fill="#AEDBFF"/>
<path d="M149.838 127.136L146.908 127.03V126.819V126.486L149.838 126.592V127.136Z" fill="#AEDBFF"/>
<path d="M149.838 124.509L146.908 124.358V124.086L146.923 123.814L149.838 123.965V124.509Z" fill="#AEDBFF"/>
<path d="M149.838 123.378L146.908 123.212V122.94V122.91H147.014V122.668L149.838 122.834V123.378Z" fill="#AEDBFF"/>
<path d="M147.014 92.1055L149.837 92.6944V93.2531L147.014 92.6491V92.1055Z" fill="#AEDBFF"/>
<path d="M149.838 128.269L146.908 128.178V127.907V127.635L149.838 127.725V128.269Z" fill="#AEDBFF"/>
<path d="M149.837 113.201L147.014 112.899V112.355L149.837 112.657V113.201Z" fill="#AEDBFF"/>
<path d="M149.837 116.974L147.014 116.717V116.174L149.837 116.431V116.974Z" fill="#AEDBFF"/>
<path d="M149.837 115.843L147.014 115.571V115.027L149.837 115.299V115.843Z" fill="#AEDBFF"/>
<path d="M149.837 120.736L147.014 120.54V119.996L149.837 120.192V120.736Z" fill="#AEDBFF"/>
<path d="M149.837 119.605L147.014 119.393V118.85L149.837 119.061V119.605Z" fill="#AEDBFF"/>
<path d="M154.382 104.696V106.387L154.064 106.326V104.65L154.382 104.696Z" fill="#072C62"/>
<path d="M154.382 108.381V110.057L154.064 110.012V108.336L154.382 108.381Z" fill="#072C62"/>
<path d="M154.38 112.065V113.741L154.062 113.711V112.02L154.38 112.065Z" fill="#061CE4"/>
<path d="M153.234 100.832L153.551 100.877V102.569L153.234 102.508V100.832Z" fill="#072C62"/>
<path d="M154.382 101.029V102.705L154.064 102.645V100.969L154.382 101.029Z" fill="#072C62"/>
<path d="M152.4 100.68L152.718 100.74V102.431L152.4 102.371V100.68Z" fill="#072C62"/>
<path d="M154.382 115.749V117.41L154.064 117.395V115.719L154.382 115.749Z" fill="#072C62"/>
<path d="M154.382 121.097L154.064 121.082V119.406L154.382 119.421V121.097Z" fill="#072C62"/>
<path d="M152.718 120.989L152.4 120.959V119.268L152.718 119.298V120.989Z" fill="#072C62"/>
<path d="M153.551 121.036L153.234 121.021V119.33L153.551 119.36V121.036Z" fill="#072C62"/>
<path d="M152.718 108.157V109.848L152.4 109.818V108.127L152.718 108.157Z" fill="#072C62"/>
<path d="M155.723 95.6214V93.9453L156.055 94.0208V95.6818L155.723 95.6214Z" fill="#061CE4"/>
<path d="M152.718 113.559L152.4 113.529V111.838L152.718 111.868V113.559Z" fill="#072C62"/>
<path d="M153.551 108.276V109.952L153.234 109.922V108.23L153.551 108.276Z" fill="#072C62"/>
<path d="M152.718 117.278L152.4 117.248V115.557L152.718 115.587V117.278Z" fill="#072C62"/>
<path d="M152.4 104.395L152.718 104.455V106.146L152.4 106.086V104.395Z" fill="#072C62"/>
<path d="M153.55 117.352L153.232 117.322V115.631L153.55 115.661V117.352Z" fill="#061CE4"/>
<path d="M153.551 104.577V106.268L153.234 106.207V104.531L153.551 104.577Z" fill="#072C62"/>
<path d="M153.551 111.977V113.653L153.234 113.623V111.932L153.551 111.977Z" fill="#072C62"/>
<path d="M156.055 101.314V102.975L155.723 102.915V101.254L156.055 101.314Z" fill="#061CE4"/>
<path d="M156.055 108.608V110.269L155.723 110.223V108.562L156.055 108.608Z" fill="#072C62"/>
<path d="M156.055 97.66V99.321L155.723 99.2757V97.5996L156.055 97.66Z" fill="#072C62"/>
<path d="M156.055 104.952V106.613L155.723 106.567V104.906L156.055 104.952Z" fill="#061CE4"/>
<path d="M156.055 115.901V117.562L155.723 117.532V115.871L156.055 115.901Z" fill="#072C62"/>
<path d="M156.055 112.262V113.923L155.723 113.878V112.217L156.055 112.262Z" fill="#072C62"/>
<path d="M152.718 124.689L152.4 124.674V122.982L152.718 123.013V124.689Z" fill="#072C62"/>
<path d="M152.4 94.9426V93.2363L152.718 93.3118V95.003L152.4 94.9426Z" fill="#072C62"/>
<path d="M154.064 95.2738V93.5977L154.382 93.6581V95.3493L154.064 95.2738Z" fill="#072C62"/>
<path d="M154.893 95.4398V93.7637L155.225 93.8392V95.5153L154.893 95.4398Z" fill="#072C62"/>
<path d="M152.718 126.726V128.402H152.4V126.711L152.718 126.726Z" fill="#072C62"/>
<path d="M154.382 126.789V128.45H154.064V126.773L154.382 126.789Z" fill="#072C62"/>
<path d="M156.055 119.556V121.217L155.723 121.186V119.525L156.055 119.556Z" fill="#072C62"/>
<path d="M153.551 126.757V128.433L153.234 128.418V126.742L153.551 126.757Z" fill="#072C62"/>
<path d="M156.055 123.195V124.856L155.723 124.841V123.18L156.055 123.195Z" fill="#072C62"/>
<path d="M156.055 126.849V128.51L155.723 128.495V126.834L156.055 126.849Z" fill="#072C62"/>
<path d="M155.225 126.82V128.481L154.893 128.466V126.805L155.225 126.82Z" fill="#072C62"/>
<path d="M153.234 95.1072V93.416L153.551 93.4915V95.1827L153.234 95.1072Z" fill="#072C62"/>
<path d="M155.225 101.164V102.841L154.893 102.78V101.119L155.225 101.164Z" fill="#072C62"/>
<path d="M153.234 97.1172L153.551 97.1776V98.8688L153.234 98.8084V97.1172Z" fill="#072C62"/>
<path d="M152.4 96.9668L152.718 97.0272V98.7184L152.4 98.658V96.9668Z" fill="#061CE4"/>
<path d="M154.062 97.2832L154.38 97.3436V99.0197L154.062 98.9593V97.2832Z" fill="#061CE4"/>
<path d="M155.225 97.5091V99.1701L154.893 99.1097V97.4336L155.225 97.5091Z" fill="#072C62"/>
<path d="M154.38 124.779L154.062 124.764V123.088L154.38 123.103V124.779Z" fill="#061CE4"/>
<path d="M155.225 119.497V121.158L154.893 121.128V119.467L155.225 119.497Z" fill="#072C62"/>
<path d="M155.225 124.813L154.893 124.798V123.137L155.225 123.152V124.813Z" fill="#072C62"/>
<path d="M153.551 124.734L153.234 124.719V123.043L153.551 123.058V124.734Z" fill="#072C62"/>
<path d="M155.227 112.157V113.833L154.895 113.788V112.127L155.227 112.157Z" fill="#061CE4"/>
<path d="M155.225 108.502V110.163L154.893 110.118V108.457L155.225 108.502Z" fill="#072C62"/>
<path d="M155.227 115.827V117.488L154.895 117.458V115.797L155.227 115.827Z" fill="#061CE4"/>
<path d="M155.225 104.834V106.51L154.893 106.45V104.789L155.225 104.834Z" fill="#072C62"/>
<g style="mix-blend-mode:screen" opacity="0.7">
<g style="mix-blend-mode:screen">
<g style="mix-blend-mode:screen">
<path d="M163.896 112.155L145.73 121.094V107.414L163.896 96.6777V112.155Z" fill="#1555B8"/>
</g>
</g>
<g style="mix-blend-mode:screen">
<g style="mix-blend-mode:screen">
<path d="M163.896 125.113L154.005 129.251L145.73 129.039V127.212L163.896 118.877V125.113Z" fill="#1555B8"/>
</g>
</g>
</g>
<path d="M19.8535 132.23C19.8535 131.974 20.0498 131.777 20.3065 131.777H173.632C173.889 131.777 174.085 131.974 174.085 132.23C174.085 132.472 173.889 132.683 173.632 132.683H20.3065C20.0498 132.683 19.8535 132.472 19.8535 132.23Z" fill="#064298"/>
<path d="M6.68555 132.23C6.68555 131.974 6.89695 131.777 7.15365 131.777H15.1868C15.4435 131.777 15.6398 131.974 15.6398 132.23C15.6398 132.472 15.4435 132.683 15.1868 132.683H7.15365C6.89695 132.683 6.68555 132.472 6.68555 132.23Z" fill="#064298"/>
<path d="M178.873 132.23C178.873 131.974 179.069 131.777 179.326 131.777H191.889C192.146 131.777 192.357 131.974 192.357 132.23C192.357 132.472 192.146 132.683 191.889 132.683H179.326C179.069 132.683 178.873 132.472 178.873 132.23Z" fill="#064298"/>
</svg>
