<svg width="20" height="21" viewBox="0 0 20 21" fill="none" xmlns="http://www.w3.org/2000/svg">
<g clip-path="url(#clip0_67_9109)">
<rect y="0.259766" width="20" height="20" rx="2" fill="#159064"/>
<path d="M16.1082 3.48319C15.7991 3.28296 15.4232 3.21356 15.063 3.29022C14.7028 3.36689 14.3878 3.58335 14.1871 3.89208L8.13927 13.2137L5.34538 10.6304C5.212 10.5037 5.05477 10.4048 4.88284 10.3394C4.7109 10.2739 4.52768 10.2433 4.34381 10.2493C4.15994 10.2553 3.9791 10.2977 3.81177 10.3742C3.64444 10.4506 3.49396 10.5595 3.36907 10.6946C3.24419 10.8297 3.14738 10.9882 3.08428 11.161C3.02117 11.3338 2.99302 11.5174 3.00146 11.7012C3.00991 11.885 3.05477 12.0652 3.13346 12.2315C3.21215 12.3978 3.32308 12.5468 3.45983 12.6699L7.46483 16.3732C7.7315 16.6204 8.07038 16.7426 8.40705 16.7426C8.78094 16.7426 9.25927 16.586 9.57316 16.1099C9.75761 15.8287 16.5176 5.4043 16.5176 5.4043C16.6169 5.25128 16.685 5.0802 16.7182 4.90084C16.7513 4.72147 16.7488 4.53734 16.7108 4.35895C16.6728 4.18055 16.6 4.01139 16.4966 3.86113C16.3932 3.71087 16.2612 3.58245 16.1082 3.48319Z" fill="white"/>
</g>
<defs>
<clipPath id="clip0_67_9109">
<rect width="20" height="20" fill="white" transform="translate(0 0.259766)"/>
</clipPath>
</defs>
</svg>
