<svg width="50" height="50" viewBox="0 0 50 50" fill="none" xmlns="http://www.w3.org/2000/svg">
<path d="M46.875 12.5H40.4688C39.6875 8.90625 36.5625 6.25 32.8125 6.25C29.0625 6.25 25.9375 8.90625 25.1562 12.5H3.125V15.625H25.1562C25.9375 19.2188 29.0625 21.875 32.8125 21.875C36.5625 21.875 39.6875 19.2188 40.4688 15.625H46.875V12.5ZM32.8125 18.75C30.1562 18.75 28.125 16.7188 28.125 14.0625C28.125 11.4062 30.1562 9.375 32.8125 9.375C35.4688 9.375 37.5 11.4062 37.5 14.0625C37.5 16.7188 35.4688 18.75 32.8125 18.75ZM3.125 37.5H9.53125C10.3125 41.0938 13.4375 43.75 17.1875 43.75C20.9375 43.75 24.0625 41.0938 24.8438 37.5H46.875V34.375H24.8438C24.0625 30.7812 20.9375 28.125 17.1875 28.125C13.4375 28.125 10.3125 30.7812 9.53125 34.375H3.125V37.5ZM17.1875 31.25C19.8438 31.25 21.875 33.2812 21.875 35.9375C21.875 38.5938 19.8438 40.625 17.1875 40.625C14.5312 40.625 12.5 38.5938 12.5 35.9375C12.5 33.2812 14.5312 31.25 17.1875 31.25Z" fill="#2A73DE"/>
</svg>
