<svg width="39" height="36" viewBox="0 0 39 36" fill="none" xmlns="http://www.w3.org/2000/svg">
<g clip-path="url(#clip0_55_5352)">
<path d="M0 27C0 28.0609 0.456546 29.0783 1.2692 29.8284C2.08186 30.5786 3.18406 31 4.33333 31H34.6667C35.8159 31 36.9181 30.5786 37.7308 29.8284C38.5435 29.0783 39 28.0609 39 27V23H0V27Z" fill="#FFCD05"/>
<path d="M0 14H39V23H0V14Z" fill="#ED1F24"/>
<path d="M34.6667 5H4.33333C3.18406 5 2.08186 5.42143 1.2692 6.17157C0.456546 6.92172 0 7.93913 0 9L0 14H39V9C39 7.93913 38.5435 6.92172 37.7308 6.17157C36.9181 5.42143 35.8159 5 34.6667 5Z" fill="#141414"/>
</g>
<defs>
<clipPath id="clip0_55_5352">
<rect width="39" height="36" fill="white"/>
</clipPath>
</defs>
</svg>
