<svg width="26" height="26" viewBox="0 0 26 26" fill="none" xmlns="http://www.w3.org/2000/svg">
<path d="M13.0001 6.5C11.8702 6.50143 10.7871 6.95091 9.98813 7.74985C9.18919 8.54878 8.73971 9.63196 8.73828 10.7618H10.9049C10.9049 9.60592 11.8453 8.66667 13.0001 8.66667C14.1549 8.66667 15.0953 9.60592 15.0953 10.7618C15.0953 11.4097 14.5742 11.8798 13.7779 12.5233C13.5178 12.7271 13.268 12.9437 13.0294 13.1723C11.9482 14.2523 11.9168 15.3996 11.9168 15.5274V16.25H14.0834L14.0824 15.5642C14.0834 15.5469 14.1181 15.1461 14.5601 14.7052C14.7226 14.5427 14.9274 14.3802 15.1397 14.209C15.9836 13.5254 17.2609 12.493 17.2609 10.7618C17.26 9.63198 16.8109 8.54863 16.012 7.7496C15.2132 6.95056 14.13 6.50115 13.0001 6.5ZM11.9168 17.3333H14.0834V19.5H11.9168V17.3333Z" fill="white"/>
<path d="M12.9993 2.16602C7.02585 2.16602 2.16602 7.02585 2.16602 12.9993C2.16602 18.9728 7.02585 23.8327 12.9993 23.8327C18.9728 23.8327 23.8327 18.9728 23.8327 12.9993C23.8327 7.02585 18.9728 2.16602 12.9993 2.16602ZM12.9993 21.666C8.22077 21.666 4.33268 17.7779 4.33268 12.9993C4.33268 8.22077 8.22077 4.33268 12.9993 4.33268C17.7779 4.33268 21.666 8.22077 21.666 12.9993C21.666 17.7779 17.7779 21.666 12.9993 21.666Z" fill="white"/>
</svg>
