<svg width="28" height="28" viewBox="0 0 28 28" fill="none" xmlns="http://www.w3.org/2000/svg">
<path d="M22.75 26.25H12.25C11.7859 26.25 11.3408 26.0656 11.0126 25.7374C10.6844 25.4092 10.5 24.9641 10.5 24.5V21.875H12.25V24.5H22.75V3.5H12.25V6.125H10.5V3.5C10.5 3.03587 10.6844 2.59075 11.0126 2.26256C11.3408 1.93437 11.7859 1.75 12.25 1.75H22.75C23.2141 1.75 23.6592 1.93437 23.9874 2.26256C24.3156 2.59075 24.5 3.03587 24.5 3.5V24.5C24.5 24.9641 24.3156 25.4092 23.9874 25.7374C23.6592 26.0656 23.2141 26.25 22.75 26.25Z" fill="#3D3D3D"/>
<path d="M12.7663 18.0163L15.8988 14.875H3.5V13.125H15.8988L12.7663 9.98375L14 8.75L19.25 14L14 19.25L12.7663 18.0163Z" fill="#3D3D3D"/>
</svg>
