<svg width="141" height="58" viewBox="0 0 141 58" fill="none" xmlns="http://www.w3.org/2000/svg">
<path d="M43.692 0H11.7241C5.24908 0 0 5.47543 0 12.2297V45.6576C0 52.4119 5.24908 57.8874 11.7241 57.8874H43.692C50.167 57.8874 55.4161 52.4119 55.4161 45.6576V12.2297C55.4161 5.47543 50.167 0 43.692 0Z" fill="#3384FA"/>
<path d="M41.3475 8.07227H13.8349C10.3815 8.07227 7.58203 10.9925 7.58203 14.5948V42.3155C7.58203 45.9178 10.3815 48.838 13.8349 48.838H41.3475C44.8009 48.838 47.6004 45.9178 47.6004 42.3155V14.5948C47.6004 10.9925 44.8009 8.07227 41.3475 8.07227Z" fill="#F5F5F5"/>
<path d="M55.4949 14.5938H43.2236C39.7702 14.5938 36.9707 17.514 36.9707 21.1163V37.4226C36.9707 41.0249 39.7702 43.9451 43.2236 43.9451H55.4949C58.9482 43.9451 61.7477 41.0249 61.7477 37.4226V21.1163C61.7477 17.514 58.9482 14.5938 55.4949 14.5938Z" fill="#F5F5F5"/>
<path d="M19.3828 30.9824H32.592V39.2171H19.3828V30.9824Z" fill="#3384FA"/>
<path d="M29.3885 30.9824H33.3748C35.4851 30.9824 37.2828 32.8577 37.2828 35.1405C37.2828 37.3419 35.4851 39.2171 33.3748 39.2171H29.3885C27.2 39.2171 25.4023 37.3419 25.4023 35.1405C25.4023 32.8577 27.2 30.9824 29.3885 30.9824Z" fill="#3384FA"/>
<path d="M19.3828 17.9375H32.592V26.1722H19.3828V17.9375Z" fill="#3384FA"/>
<path d="M29.3885 17.9375H33.3748C35.4851 17.9375 37.2828 19.8127 37.2828 22.0956C37.2828 24.297 35.4851 26.1722 33.3748 26.1722H29.3885C27.2 26.1722 25.4023 24.297 25.4023 22.0956C25.4023 19.8127 27.2 17.9375 29.3885 17.9375Z" fill="#3384FA"/>
<path d="M49.66 35V21H56.5C58.26 21 59.58 21.3333 60.46 22C61.3533 22.6667 61.8 23.5467 61.8 24.64C61.8 25.3733 61.62 26.0133 61.26 26.56C60.9 27.0933 60.4067 27.5067 59.78 27.8C59.1533 28.0933 58.4333 28.24 57.62 28.24L58 27.42C58.88 27.42 59.66 27.5667 60.34 27.86C61.02 28.14 61.5467 28.56 61.92 29.12C62.3067 29.68 62.5 30.3667 62.5 31.18C62.5 32.38 62.0267 33.32 61.08 34C60.1333 34.6667 58.74 35 56.9 35H49.66ZM52.88 32.56H56.66C57.5 32.56 58.1333 32.4267 58.56 32.16C59 31.88 59.22 31.44 59.22 30.84C59.22 30.2533 59 29.82 58.56 29.54C58.1333 29.2467 57.5 29.1 56.66 29.1H52.64V26.74H56.1C56.8867 26.74 57.4867 26.6067 57.9 26.34C58.3267 26.06 58.54 25.64 58.54 25.08C58.54 24.5333 58.3267 24.1267 57.9 23.86C57.4867 23.58 56.8867 23.44 56.1 23.44H52.88V32.56ZM67.933 26.64H74.673V29.16H67.933V26.64ZM68.173 32.4H75.793V35H64.953V21H75.533V23.6H68.173V32.4ZM81.2709 35V23.64H76.7909V21H88.9909V23.64H84.5109V35H81.2709ZM88.0236 37L94.6236 18.16H97.4036L90.8036 37H88.0236Z" fill="#3384FA"/>
<path d="M102.376 35L96.3356 21H99.8356L105.116 33.4H103.056L108.416 21H111.636L105.576 35H102.376ZM112.805 35V21H119.165C120.685 21 122.025 21.2933 123.185 21.88C124.345 22.4533 125.251 23.26 125.905 24.3C126.558 25.34 126.885 26.5733 126.885 28C126.885 29.4133 126.558 30.6467 125.905 31.7C125.251 32.74 124.345 33.5533 123.185 34.14C122.025 34.7133 120.685 35 119.165 35H112.805ZM116.045 32.34H119.005C119.938 32.34 120.745 32.1667 121.425 31.82C122.118 31.46 122.651 30.9533 123.025 30.3C123.411 29.6467 123.605 28.88 123.605 28C123.605 27.1067 123.411 26.34 123.025 25.7C122.651 25.0467 122.118 24.5467 121.425 24.2C120.745 23.84 119.938 23.66 119.005 23.66H116.045V32.34ZM133.928 35.24C132.808 35.24 131.735 35.0933 130.708 34.8C129.681 34.4933 128.855 34.1 128.228 33.62L129.328 31.18C129.928 31.6067 130.635 31.96 131.448 32.24C132.275 32.5067 133.108 32.64 133.948 32.64C134.588 32.64 135.101 32.58 135.488 32.46C135.888 32.3267 136.181 32.1467 136.368 31.92C136.555 31.6933 136.648 31.4333 136.648 31.14C136.648 30.7667 136.501 30.4733 136.208 30.26C135.915 30.0333 135.528 29.8533 135.048 29.72C134.568 29.5733 134.035 29.44 133.448 29.32C132.875 29.1867 132.295 29.0267 131.708 28.84C131.135 28.6533 130.608 28.4133 130.128 28.12C129.648 27.8267 129.255 27.44 128.948 26.96C128.655 26.48 128.508 25.8667 128.508 25.12C128.508 24.32 128.721 23.5933 129.148 22.94C129.588 22.2733 130.241 21.7467 131.108 21.36C131.988 20.96 133.088 20.76 134.408 20.76C135.288 20.76 136.155 20.8667 137.008 21.08C137.861 21.28 138.615 21.5867 139.268 22L138.268 24.46C137.615 24.0867 136.961 23.8133 136.308 23.64C135.655 23.4533 135.015 23.36 134.388 23.36C133.761 23.36 133.248 23.4333 132.848 23.58C132.448 23.7267 132.161 23.92 131.988 24.16C131.815 24.3867 131.728 24.6533 131.728 24.96C131.728 25.32 131.875 25.6133 132.168 25.84C132.461 26.0533 132.848 26.2267 133.328 26.36C133.808 26.4933 134.335 26.6267 134.908 26.76C135.495 26.8933 136.075 27.0467 136.648 27.22C137.235 27.3933 137.768 27.6267 138.248 27.92C138.728 28.2133 139.115 28.6 139.408 29.08C139.715 29.56 139.868 30.1667 139.868 30.9C139.868 31.6867 139.648 32.4067 139.208 33.06C138.768 33.7133 138.108 34.24 137.228 34.64C136.361 35.04 135.261 35.24 133.928 35.24Z" fill="#3D3D3D"/>
</svg>
