<svg width="22" height="22" viewBox="0 0 22 22" fill="none" xmlns="http://www.w3.org/2000/svg">
<path d="M11.7796 9.69961C11.2596 9.56961 10.7396 9.30961 10.3496 8.91961C9.95961 8.78961 9.82961 8.39961 9.82961 8.13961C9.82961 7.87961 9.95961 7.48961 10.2196 7.35961C10.6096 7.09961 10.9996 6.83961 11.3896 6.96961C12.1696 6.96961 12.8196 7.35961 13.2096 7.87961L14.3796 6.31961C13.9896 5.92961 13.5996 5.66961 13.2096 5.40961C12.8196 5.14961 12.2996 5.01961 11.7796 5.01961V3.19961H10.2196V5.01961C9.56961 5.14961 8.91961 5.53961 8.39961 6.05961C7.87961 6.70961 7.48961 7.48961 7.61961 8.26961C7.61961 9.04961 7.87961 9.82961 8.39961 10.3496C9.04961 10.9996 9.95961 11.3896 10.7396 11.7796C11.1296 11.9096 11.6496 12.1696 12.0396 12.4296C12.2996 12.6896 12.4296 13.0796 12.4296 13.4696C12.4296 13.8596 12.2996 14.2496 12.0396 14.6396C11.6496 15.0296 11.1296 15.1596 10.7396 15.1596C10.2196 15.1596 9.56961 15.0296 9.17961 14.6396C8.78961 14.3796 8.39961 13.9896 8.13961 13.5996L6.83961 15.0296C7.22961 15.5496 7.61961 15.9396 8.13961 16.3296C8.78961 16.7196 9.56961 17.1096 10.3496 17.1096V18.7996H11.7796V16.8496C12.5596 16.7196 13.2096 16.3296 13.7296 15.8096C14.3796 15.1596 14.7696 14.1196 14.7696 13.2096C14.7696 12.4296 14.5096 11.5196 13.8596 10.9996C13.2096 10.3496 12.5596 9.95961 11.7796 9.69961ZM10.9996 0.599609C5.27961 0.599609 0.599609 5.27961 0.599609 10.9996C0.599609 16.7196 5.27961 21.3996 10.9996 21.3996C16.7196 21.3996 21.3996 16.7196 21.3996 10.9996C21.3996 5.27961 16.7196 0.599609 10.9996 0.599609ZM10.9996 19.9696C6.05961 19.9696 2.02961 15.9396 2.02961 10.9996C2.02961 6.05961 6.05961 2.02961 10.9996 2.02961C15.9396 2.02961 19.9696 6.05961 19.9696 10.9996C19.9696 15.9396 15.9396 19.9696 10.9996 19.9696Z" fill="white"/>
</svg>
