<svg width="32" height="32" viewBox="0 0 32 32" fill="none" xmlns="http://www.w3.org/2000/svg">
<circle cx="16" cy="16" r="16" fill="#2A73DE"/>
<path d="M22.4 25.5283C22.4 25.5283 24 25.5283 24 23.9009C24 22.2736 22.4 17.3915 16 17.3915C9.6 17.3915 8 22.2736 8 23.9009C8 25.5283 9.6 25.5283 9.6 25.5283H22.4ZM9.6352 23.9009C9.62338 23.8993 9.61164 23.8971 9.6 23.8944C9.6016 23.4648 9.8672 22.2182 10.816 21.0954C11.6992 20.0425 13.2512 19.0189 16 19.0189C18.7472 19.0189 20.2992 20.0441 21.184 21.0954C22.1328 22.2182 22.3968 23.4664 22.4 23.8944L22.3872 23.8977C22.3798 23.899 22.3723 23.9 22.3648 23.9009H9.6352ZM16 14.1368C16.8487 14.1368 17.6626 13.7939 18.2627 13.1835C18.8629 12.5731 19.2 11.7453 19.2 10.8821C19.2 10.0189 18.8629 9.19102 18.2627 8.58064C17.6626 7.97026 16.8487 7.62736 16 7.62736C15.1513 7.62736 14.3374 7.97026 13.7373 8.58064C13.1371 9.19102 12.8 10.0189 12.8 10.8821C12.8 11.7453 13.1371 12.5731 13.7373 13.1835C14.3374 13.7939 15.1513 14.1368 16 14.1368ZM20.8 10.8821C20.8 11.5232 20.6758 12.158 20.4346 12.7504C20.1934 13.3427 19.8398 13.8809 19.3941 14.3342C18.9484 14.7876 18.4192 15.1472 17.8369 15.3925C17.2545 15.6379 16.6303 15.7641 16 15.7641C15.3697 15.7641 14.7455 15.6379 14.1631 15.3925C13.5808 15.1472 13.0516 14.7876 12.6059 14.3342C12.1602 13.8809 11.8066 13.3427 11.5654 12.7504C11.3242 12.158 11.2 11.5232 11.2 10.8821C11.2 9.58727 11.7057 8.34549 12.6059 7.42993C13.5061 6.51436 14.727 6 16 6C17.273 6 18.4939 6.51436 19.3941 7.42993C20.2943 8.34549 20.8 9.58727 20.8 10.8821Z" fill="white"/>
</svg>
