<svg width="32" height="32" viewBox="0 0 32 32" fill="none" xmlns="http://www.w3.org/2000/svg">
<circle cx="16" cy="16" r="16" fill="#2A73DE"/>
<g clip-path="url(#clip0_171_1750)">
<path d="M21.8227 19.548C21.8227 20.8002 21.4083 21.8785 20.5796 22.7829C19.7509 23.6873 18.6744 24.2459 17.3501 24.4587V26.6071C17.3501 26.7217 17.3126 26.8158 17.2376 26.8895C17.1627 26.9632 17.0669 27 16.9503 27H15.2637C15.1554 27 15.0617 26.9611 14.9826 26.8834C14.9035 26.8056 14.8639 26.7135 14.8639 26.6071V24.4587C14.3142 24.385 13.7832 24.2582 13.271 24.0781C12.7588 23.8981 12.3361 23.716 12.0029 23.5318C11.6698 23.3477 11.3616 23.1512 11.0784 22.9425C10.7952 22.7338 10.6016 22.5804 10.4975 22.4821C10.3934 22.3839 10.3205 22.3103 10.2788 22.2612C10.1373 22.0893 10.1289 21.9215 10.2539 21.7578L11.5407 20.1004C11.599 20.0186 11.6948 19.9695 11.828 19.9531C11.953 19.9368 12.0529 19.9736 12.1279 20.0636L12.1528 20.0882C13.094 20.8984 14.106 21.41 15.1887 21.6228C15.4969 21.6882 15.8051 21.721 16.1132 21.721C16.7879 21.721 17.3813 21.545 17.8935 21.1931C18.4058 20.8411 18.6619 20.3419 18.6619 19.6953C18.6619 19.4661 18.5994 19.2493 18.4745 19.0446C18.3495 18.84 18.21 18.6682 18.0559 18.529C17.9019 18.3899 17.6582 18.2364 17.3251 18.0686C16.9919 17.9009 16.7171 17.7699 16.5005 17.6758C16.284 17.5817 15.9508 17.4487 15.5011 17.2768C15.1762 17.1458 14.9201 17.0435 14.7327 16.9699C14.5453 16.8962 14.2892 16.7878 13.9644 16.6445C13.6396 16.5013 13.3793 16.3744 13.1835 16.264C12.9878 16.1535 12.7525 16.0082 12.4777 15.8281C12.2028 15.6481 11.98 15.4741 11.8093 15.3064C11.6385 15.1386 11.4574 14.9381 11.2658 14.7048C11.0743 14.4715 10.9264 14.2342 10.8223 13.9927C10.7182 13.7513 10.6307 13.4792 10.5599 13.1763C10.4892 12.8735 10.4538 12.5543 10.4538 12.2188C10.4538 11.0893 10.8619 10.099 11.6781 9.24777C12.4943 8.39658 13.5563 7.84821 14.8639 7.60268V5.39286C14.8639 5.28646 14.9035 5.19438 14.9826 5.11663C15.0617 5.03888 15.1554 5 15.2637 5H16.9503C17.0669 5 17.1627 5.03683 17.2376 5.11049C17.3126 5.18415 17.3501 5.27827 17.3501 5.39286V7.55357C17.8248 7.60268 18.285 7.6968 18.7306 7.83594C19.1762 7.97507 19.5385 8.11217 19.8175 8.24721C20.0965 8.38225 20.361 8.53571 20.6108 8.70759C20.8607 8.87946 21.0231 8.99814 21.0981 9.06362C21.173 9.12909 21.2355 9.18638 21.2855 9.23549C21.4271 9.38281 21.4479 9.53832 21.3479 9.70201L20.336 11.4944C20.2694 11.6172 20.1736 11.6827 20.0486 11.6908C19.932 11.7154 19.8196 11.6868 19.7113 11.6049C19.6863 11.5804 19.6259 11.5312 19.5302 11.4576C19.4344 11.3839 19.272 11.2755 19.0429 11.1323C18.8139 10.989 18.5703 10.8581 18.3121 10.7394C18.0539 10.6207 17.7436 10.5143 17.3813 10.4202C17.019 10.3261 16.6629 10.279 16.3131 10.279C15.5219 10.279 14.8764 10.455 14.3767 10.8069C13.8769 11.1589 13.6271 11.6131 13.6271 12.1696C13.6271 12.3824 13.6625 12.5789 13.7333 12.7589C13.804 12.939 13.9269 13.1088 14.1018 13.2684C14.2767 13.428 14.4412 13.5631 14.5953 13.6735C14.7494 13.784 14.9826 13.9109 15.2949 14.0541C15.6073 14.1974 15.8592 14.3078 16.0508 14.3856C16.2423 14.4634 16.5338 14.5759 16.9253 14.7232C17.3667 14.8869 17.7041 15.0158 17.9373 15.1099C18.1705 15.2041 18.487 15.3473 18.8868 15.5396C19.2865 15.732 19.601 15.9059 19.83 16.0614C20.059 16.2169 20.3172 16.4215 20.6046 16.6752C20.8919 16.9289 21.1127 17.1888 21.2667 17.4548C21.4208 17.7208 21.552 18.0339 21.6603 18.394C21.7686 18.7541 21.8227 19.1388 21.8227 19.548Z" fill="white"/>
</g>
<defs>
<clipPath id="clip0_171_1750">
<rect width="12" height="22" fill="white" transform="translate(10 5)"/>
</clipPath>
</defs>
</svg>
