<svg width="45" height="45" viewBox="0 0 45 45" fill="none" xmlns="http://www.w3.org/2000/svg">
<path d="M42.1875 39.375C42.1875 39.375 45 39.375 45 36.5625C45 33.75 42.1875 25.3125 30.9375 25.3125C19.6875 25.3125 16.875 33.75 16.875 36.5625C16.875 39.375 19.6875 39.375 19.6875 39.375H42.1875ZM19.7494 36.5625C19.7286 36.5596 19.708 36.5559 19.6875 36.5513C19.6903 35.8088 20.1572 33.6544 21.825 31.7138C23.3775 29.8941 26.1056 28.125 30.9375 28.125C35.7666 28.125 38.4947 29.8969 40.05 31.7138C41.7178 33.6544 42.1819 35.8116 42.1875 36.5513L42.165 36.5569C42.1519 36.5591 42.1388 36.561 42.1256 36.5625H19.7494ZM30.9375 19.6875C32.4293 19.6875 33.8601 19.0949 34.915 18.04C35.9699 16.9851 36.5625 15.5543 36.5625 14.0625C36.5625 12.5707 35.9699 11.1399 34.915 10.085C33.8601 9.03013 32.4293 8.4375 30.9375 8.4375C29.4457 8.4375 28.0149 9.03013 26.96 10.085C25.9051 11.1399 25.3125 12.5707 25.3125 14.0625C25.3125 15.5543 25.9051 16.9851 26.96 18.04C28.0149 19.0949 29.4457 19.6875 30.9375 19.6875ZM39.375 14.0625C39.375 15.1705 39.1568 16.2677 38.7327 17.2914C38.3087 18.3151 37.6872 19.2452 36.9037 20.0287C36.1202 20.8122 35.1901 21.4337 34.1664 21.8577C33.1427 22.2818 32.0455 22.5 30.9375 22.5C29.8295 22.5 28.7323 22.2818 27.7086 21.8577C26.6849 21.4337 25.7548 20.8122 24.9713 20.0287C24.1878 19.2452 23.5663 18.3151 23.1423 17.2914C22.7182 16.2677 22.5 15.1705 22.5 14.0625C22.5 11.8247 23.3889 9.67863 24.9713 8.09629C26.5536 6.51395 28.6997 5.625 30.9375 5.625C33.1753 5.625 35.3214 6.51395 36.9037 8.09629C38.486 9.67863 39.375 11.8247 39.375 14.0625ZM19.5075 26.1C18.3824 25.7457 17.2227 25.5128 16.0481 25.4053C15.3881 25.3426 14.7255 25.3116 14.0625 25.3125C2.8125 25.3125 0 33.75 0 36.5625C0 38.4384 0.936563 39.375 2.8125 39.375H14.67C14.2531 38.497 14.0451 37.5343 14.0625 36.5625C14.0625 33.7219 15.1228 30.8194 17.1281 28.395C17.8116 27.5681 18.6075 26.7947 19.5075 26.1ZM13.8375 28.125C12.1729 30.6261 11.2737 33.5582 11.25 36.5625H2.8125C2.8125 35.8312 3.27375 33.6656 4.95 31.7138C6.48281 29.925 9.14625 28.1813 13.8375 28.1278V28.125ZM4.21875 15.4688C4.21875 13.231 5.1077 11.0849 6.69004 9.50254C8.27238 7.9202 10.4185 7.03125 12.6562 7.03125C14.894 7.03125 17.0401 7.9202 18.6225 9.50254C20.2048 11.0849 21.0938 13.231 21.0938 15.4688C21.0938 17.7065 20.2048 19.8526 18.6225 21.435C17.0401 23.0173 14.894 23.9062 12.6562 23.9062C10.4185 23.9062 8.27238 23.0173 6.69004 21.435C5.1077 19.8526 4.21875 17.7065 4.21875 15.4688ZM12.6562 9.84375C11.1644 9.84375 9.73367 10.4364 8.67877 11.4913C7.62388 12.5462 7.03125 13.9769 7.03125 15.4688C7.03125 16.9606 7.62388 18.3913 8.67877 19.4462C9.73367 20.5011 11.1644 21.0938 12.6562 21.0938C14.1481 21.0938 15.5788 20.5011 16.6337 19.4462C17.6886 18.3913 18.2812 16.9606 18.2812 15.4688C18.2812 13.9769 17.6886 12.5462 16.6337 11.4913C15.5788 10.4364 14.1481 9.84375 12.6562 9.84375Z" fill="#2A73DE"/>
</svg>
