<svg width="20" height="21" viewBox="0 0 20 21" fill="none" xmlns="http://www.w3.org/2000/svg">
<rect width="20" height="20.1724" rx="2" fill="#EBBF25"/>
<path d="M15 11.2781C15 9.83739 14.4732 8.45568 13.5355 7.43695C12.5979 6.41821 11.3261 5.84589 10 5.84589V4.03516L7.77778 6.44947L10 8.86378V7.05305C12.15 7.05305 13.8889 8.94225 13.8889 11.2781C13.8889 13.6139 12.15 15.5031 10 15.5031C9.28567 15.504 8.58496 15.2909 7.97483 14.8872C7.36471 14.4836 6.86879 13.9051 6.54155 13.2153C6.2143 12.5254 6.06841 11.7509 6.11988 10.9769C6.17136 10.2028 6.41822 9.45915 6.83333 8.82757L6.03333 7.97049C5.54961 8.65533 5.22308 9.45557 5.08081 10.3049C4.93853 11.1542 4.98461 12.0281 5.21523 12.8542C5.44584 13.6803 5.85434 14.4348 6.40689 15.0551C6.95943 15.6755 7.6401 16.1438 8.39248 16.4213C9.14487 16.6989 9.9473 16.7776 10.7333 16.651C11.5193 16.5244 12.2661 16.1961 12.912 15.6934C13.5579 15.1906 14.0843 14.5278 14.4474 13.76C14.8105 12.9921 14.9999 12.1413 15 11.2781Z" fill="white"/>
</svg>
