<svg width="22" height="22" viewBox="0 0 22 22" fill="none" xmlns="http://www.w3.org/2000/svg">
<path d="M21.6133 19.8867L17.4797 15.7531C18.8147 14.0493 19.5374 11.9458 19.5313 9.78125C19.5313 7.85289 18.9594 5.96782 17.8881 4.36444C16.8167 2.76107 15.294 1.51138 13.5124 0.773429C11.7308 0.0354745 9.77044 -0.157608 7.87912 0.218598C5.98781 0.594804 4.25052 1.5234 2.88696 2.88696C1.5234 4.25052 0.594804 5.98781 0.218598 7.87912C-0.157608 9.77044 0.0354745 11.7308 0.773429 13.5124C1.51138 15.294 2.76107 16.8167 4.36444 17.8881C5.96782 18.9594 7.85289 19.5313 9.78125 19.5313C11.9458 19.5374 14.0493 18.8147 15.7531 17.4797L19.8867 21.6133C20.1167 21.8403 20.4269 21.9676 20.75 21.9676C21.0732 21.9676 21.3833 21.8403 21.6133 21.6133C21.7269 21.5001 21.8171 21.3655 21.8786 21.2174C21.9401 21.0692 21.9717 20.9104 21.9717 20.75C21.9717 20.5896 21.9401 20.4308 21.8786 20.2826C21.8171 20.1345 21.7269 20 21.6133 19.8867ZM2.46875 9.78125C2.46875 8.33498 2.89762 6.92118 3.70113 5.71865C4.50464 4.51611 5.6467 3.57885 6.98288 3.02539C8.31907 2.47192 9.78937 2.32711 11.2079 2.60926C12.6263 2.89142 13.9293 3.58786 14.952 4.61054C15.9746 5.63321 16.6711 6.93617 16.9532 8.35466C17.2354 9.77314 17.0906 11.2434 16.5371 12.5796C15.9837 13.9158 15.0464 15.0579 13.8439 15.8614C12.6413 16.6649 11.2275 17.0938 9.78125 17.0938C7.84268 17.0911 5.98428 16.3198 4.6135 14.949C3.24273 13.5782 2.47144 11.7198 2.46875 9.78125Z" fill="#3D3D3D"/>
</svg>
