<svg width="40" height="43" viewBox="0 0 40 43" fill="none" xmlns="http://www.w3.org/2000/svg">
<path d="M2.75065 0.875H33.4173C33.9257 0.875 34.4132 1.07254 34.7726 1.42417C35.1321 1.77581 35.334 2.25272 35.334 2.75V10.25C35.334 10.7473 35.1321 11.2242 34.7726 11.5758C34.4132 11.9275 33.9257 12.125 33.4173 12.125H2.75065C2.24232 12.125 1.75481 11.9275 1.39536 11.5758C1.03592 11.2242 0.833984 10.7473 0.833984 10.25V2.75C0.833984 2.25272 1.03592 1.77581 1.39536 1.42417C1.75481 1.07254 2.24232 0.875 2.75065 0.875ZM2.75065 15.875H33.4173C33.9257 15.875 34.4132 16.0725 34.7726 16.4242C35.1321 16.7758 35.334 17.2527 35.334 17.75V19.0062L30.5423 16.925L18.084 22.325V27.125H2.75065C2.24232 27.125 1.75481 26.9275 1.39536 26.5758C1.03592 26.2242 0.833984 25.7473 0.833984 25.25V17.75C0.833984 17.2527 1.03592 16.7758 1.39536 16.4242C1.75481 16.0725 2.24232 15.875 2.75065 15.875ZM2.75065 30.875H18.084C18.199 35.0937 20.0007 39.125 22.799 42.125H2.75065C2.24232 42.125 1.75481 41.9275 1.39536 41.5758C1.03592 41.2242 0.833984 40.7473 0.833984 40.25V32.75C0.833984 32.2527 1.03592 31.7758 1.39536 31.4242C1.75481 31.0725 2.24232 30.875 2.75065 30.875ZM12.334 8.375H14.2507V4.625H12.334V8.375ZM12.334 23.375H14.2507V19.625H12.334V23.375ZM12.334 38.375H14.2507V34.625H12.334V38.375ZM4.66732 4.625V8.375H8.50065V4.625H4.66732ZM4.66732 19.625V23.375H8.50065V19.625H4.66732ZM4.66732 34.625V38.375H8.50065V34.625H4.66732ZM30.5423 21.5L39.1673 25.25V30.875C39.1673 36.0875 35.4873 40.9437 30.5423 42.125C25.5973 40.9437 21.9173 36.0875 21.9173 30.875V25.25L30.5423 21.5ZM30.5423 25.1375L25.7507 27.2375V32.225C25.7507 35.1125 27.8015 37.8125 30.5423 38.4875V25.1375Z" fill="#2A73DE"/>
</svg>
