<svg width="25" height="26" viewBox="0 0 25 26" fill="none" xmlns="http://www.w3.org/2000/svg">
<path d="M22.6667 9.10412H2.66667M22.6667 9.10412C23.1087 9.10412 23.5326 8.89066 23.8452 8.51071C24.1577 8.13075 24.3333 7.61542 24.3333 7.07809V3.02603C24.3333 2.48869 24.1577 1.97336 23.8452 1.59341C23.5326 1.21346 23.1087 1 22.6667 1H2.66667C2.22464 1 1.80072 1.21346 1.48816 1.59341C1.17559 1.97336 1 2.48869 1 3.02603V7.07809C1 7.61542 1.17559 8.13075 1.48816 8.51071C1.80072 8.89066 2.22464 9.10412 2.66667 9.10412M22.6667 9.10412C23.1087 9.10412 23.5326 9.31757 23.8452 9.69753C24.1577 10.0775 24.3333 10.5928 24.3333 11.1301V15.1822C24.3333 15.7195 24.1577 16.2349 23.8452 16.6148C23.5326 16.9948 23.1087 17.2082 22.6667 17.2082M2.66667 9.10412C2.22464 9.10412 1.80072 9.31757 1.48816 9.69753C1.17559 10.0775 1 10.5928 1 11.1301V15.1822C1 15.7195 1.17559 16.2349 1.48816 16.6148C1.80072 16.9948 2.22464 17.2082 2.66667 17.2082M22.6667 17.2082H2.66667M22.6667 17.2082C23.1087 17.2082 23.5326 17.4217 23.8452 17.8016C24.1577 18.1816 24.3333 18.6969 24.3333 19.2343V23.2863C24.3333 23.8237 24.1577 24.339 23.8452 24.7189C23.5326 25.0989 23.1087 25.3124 22.6667 25.3124H2.66667C2.22464 25.3124 1.80072 25.0989 1.48816 24.7189C1.17559 24.339 1 23.8237 1 23.2863V19.2343C1 18.6969 1.17559 18.1816 1.48816 17.8016C1.80072 17.4217 2.22464 17.2082 2.66667 17.2082M3.5 5.05206H8.5M3.5 13.1562H8.5M3.5 21.2603H8.5" stroke="#084C94"/>
</svg>
