<svg width="26" height="27" viewBox="0 0 26 27" fill="none" xmlns="http://www.w3.org/2000/svg">
<path d="M26 4.46723H22.1929C21.7286 1.89857 19.8714 0 17.6429 0C15.4143 0 13.5571 1.89857 13.0929 4.46723H0V6.70084H13.0929C13.5571 9.26949 15.4143 11.1681 17.6429 11.1681C19.8714 11.1681 21.7286 9.26949 22.1929 6.70084H26V4.46723ZM17.6429 8.93445C16.0643 8.93445 14.8571 7.4826 14.8571 5.58403C14.8571 3.68546 16.0643 2.23361 17.6429 2.23361C19.2214 2.23361 20.4286 3.68546 20.4286 5.58403C20.4286 7.4826 19.2214 8.93445 17.6429 8.93445ZM0 22.3361H3.80714C4.27143 24.9048 6.12857 26.8034 8.35714 26.8034C10.5857 26.8034 12.4429 24.9048 12.9071 22.3361H26V20.1025H12.9071C12.4429 17.5339 10.5857 15.6353 8.35714 15.6353C6.12857 15.6353 4.27143 17.5339 3.80714 20.1025H0V22.3361ZM8.35714 17.8689C9.93571 17.8689 11.1429 19.3207 11.1429 21.2193C11.1429 23.1179 9.93571 24.5697 8.35714 24.5697C6.77857 24.5697 5.57143 23.1179 5.57143 21.2193C5.57143 19.3207 6.77857 17.8689 8.35714 17.8689Z" fill="white"/>
</svg>
