<svg width="47" height="47" viewBox="0 0 47 47" fill="none" xmlns="http://www.w3.org/2000/svg">
<path d="M40 13H4M40 13C40.7957 13 41.5587 12.6839 42.1213 12.1213C42.6839 11.5587 43 10.7956 43 10V4C43 3.20435 42.6839 2.44129 42.1213 1.87868C41.5587 1.31607 40.7957 1 40 1H4C3.20435 1 2.44129 1.31607 1.87868 1.87868C1.31607 2.44129 1 3.20435 1 4V10C1 10.7956 1.31607 11.5587 1.87868 12.1213C2.44129 12.6839 3.20435 13 4 13M40 13C40.7957 13 41.5587 13.3161 42.1213 13.8787C42.6839 14.4413 43 15.2044 43 16V22C43 22.7956 42.6839 23.5587 42.1213 24.1213C41.5587 24.6839 40.7957 25 40 25M4 13C3.20435 13 2.44129 13.3161 1.87868 13.8787C1.31607 14.4413 1 15.2044 1 16V22C1 22.7956 1.31607 23.5587 1.87868 24.1213C2.44129 24.6839 3.20435 25 4 25M40 25H4M40 25C40.7957 25 41.5587 25.3161 42.1213 25.8787C42.6839 26.4413 43 27.2044 43 28V34C43 34.7956 42.6839 35.5587 42.1213 36.1213C41.5587 36.6839 40.7957 37 40 37H4C3.20435 37 2.44129 36.6839 1.87868 36.1213C1.31607 35.5587 1 34.7956 1 34V28C1 27.2044 1.31607 26.4413 1.87868 25.8787C2.44129 25.3161 3.20435 25 4 25M5.5 7H14.5M5.5 19H14.5M5.5 31H14.5" stroke="#2A73DE" stroke-width="2"/>
<path d="M36.875 46.25C42.0527 46.25 46.25 42.0527 46.25 36.875C46.25 31.6973 42.0527 27.5 36.875 27.5C31.6973 27.5 27.5 31.6973 27.5 36.875C27.5 42.0527 31.6973 46.25 36.875 46.25Z" fill="#2A73DE"/>
<path d="M41.0937 32.4688L35.75 37.8125L33.2187 35.2812L31.25 37.3438L35.75 41.8438L43.0625 34.5313L41.0937 32.4688Z" fill="white"/>
</svg>
