<svg width="45" height="63" viewBox="0 0 45 63" fill="none" xmlns="http://www.w3.org/2000/svg">
<circle cx="1.5" cy="1.5" r="1.5" fill="#E6E5E5"/>
<circle cx="7.5" cy="1.5" r="1.5" fill="#E6E5E5"/>
<circle cx="13.5" cy="1.5" r="1.5" fill="#E6E5E5"/>
<circle cx="19.5" cy="1.5" r="1.5" fill="#E6E5E5"/>
<circle cx="25.5" cy="1.5" r="1.5" fill="#E6E5E5"/>
<circle cx="31.5" cy="1.5" r="1.5" fill="#E6E5E5"/>
<circle cx="37.5" cy="1.5" r="1.5" fill="#E6E5E5"/>
<circle cx="43.5" cy="1.5" r="1.5" fill="#E6E5E5"/>
<circle cx="1.5" cy="7.5" r="1.5" fill="#E6E5E5"/>
<circle cx="7.5" cy="7.5" r="1.5" fill="#E6E5E5"/>
<circle cx="13.5" cy="7.5" r="1.5" fill="#E6E5E5"/>
<circle cx="19.5" cy="7.5" r="1.5" fill="#E6E5E5"/>
<circle cx="25.5" cy="7.5" r="1.5" fill="#E6E5E5"/>
<circle cx="31.5" cy="7.5" r="1.5" fill="#E6E5E5"/>
<circle cx="37.5" cy="7.5" r="1.5" fill="#E6E5E5"/>
<circle cx="43.5" cy="7.5" r="1.5" fill="#E6E5E5"/>
<circle cx="1.5" cy="13.5" r="1.5" fill="#E6E5E5"/>
<circle cx="7.5" cy="13.5" r="1.5" fill="#E6E5E5"/>
<circle cx="13.5" cy="13.5" r="1.5" fill="#E6E5E5"/>
<circle cx="19.5" cy="13.5" r="1.5" fill="#E6E5E5"/>
<circle cx="25.5" cy="13.5" r="1.5" fill="#E6E5E5"/>
<circle cx="31.5" cy="13.5" r="1.5" fill="#E6E5E5"/>
<circle cx="37.5" cy="13.5" r="1.5" fill="#E6E5E5"/>
<circle cx="43.5" cy="13.5" r="1.5" fill="#E6E5E5"/>
<circle cx="1.5" cy="19.5" r="1.5" fill="#E6E5E5"/>
<circle cx="7.5" cy="19.5" r="1.5" fill="#E6E5E5"/>
<circle cx="13.5" cy="19.5" r="1.5" fill="#E6E5E5"/>
<circle cx="19.5" cy="19.5" r="1.5" fill="#E6E5E5"/>
<circle cx="25.5" cy="19.5" r="1.5" fill="#E6E5E5"/>
<circle cx="31.5" cy="19.5" r="1.5" fill="#E6E5E5"/>
<circle cx="37.5" cy="19.5" r="1.5" fill="#E6E5E5"/>
<circle cx="43.5" cy="19.5" r="1.5" fill="#E6E5E5"/>
<circle cx="1.5" cy="25.5" r="1.5" fill="#E6E5E5"/>
<circle cx="7.5" cy="25.5" r="1.5" fill="#E6E5E5"/>
<circle cx="13.5" cy="25.5" r="1.5" fill="#E6E5E5"/>
<circle cx="19.5" cy="25.5" r="1.5" fill="#E6E5E5"/>
<circle cx="25.5" cy="25.5" r="1.5" fill="#E6E5E5"/>
<circle cx="31.5" cy="25.5" r="1.5" fill="#E6E5E5"/>
<circle cx="37.5" cy="25.5" r="1.5" fill="#E6E5E5"/>
<circle cx="43.5" cy="25.5" r="1.5" fill="#E6E5E5"/>
<circle cx="1.5" cy="31.5" r="1.5" fill="#E6E5E5"/>
<circle cx="7.5" cy="31.5" r="1.5" fill="#E6E5E5"/>
<circle cx="13.5" cy="31.5" r="1.5" fill="#5C9FFF"/>
<circle cx="19.5" cy="31.5" r="1.5" fill="#E6E5E5"/>
<circle cx="25.5" cy="31.5" r="1.5" fill="#E6E5E5"/>
<circle cx="31.5" cy="31.5" r="1.5" fill="#E6E5E5"/>
<circle cx="37.5" cy="31.5" r="1.5" fill="#E6E5E5"/>
<circle cx="43.5" cy="31.5" r="1.5" fill="#E6E5E5"/>
<circle cx="1.5" cy="37.5" r="1.5" fill="#E6E5E5"/>
<circle cx="7.5" cy="37.5" r="1.5" fill="#E6E5E5"/>
<circle cx="13.5" cy="37.5" r="1.5" fill="#E6E5E5"/>
<circle cx="19.5" cy="37.5" r="1.5" fill="#E6E5E5"/>
<circle cx="25.5" cy="37.5" r="1.5" fill="#E6E5E5"/>
<circle cx="31.5" cy="37.5" r="1.5" fill="#E6E5E5"/>
<circle cx="37.5" cy="37.5" r="1.5" fill="#E6E5E5"/>
<circle cx="43.5" cy="37.5" r="1.5" fill="#E6E5E5"/>
<circle cx="1.5" cy="43.5" r="1.5" fill="#E6E5E5"/>
<circle cx="7.5" cy="43.5" r="1.5" fill="#E6E5E5"/>
<circle cx="13.5" cy="43.5" r="1.5" fill="#E6E5E5"/>
<circle cx="19.5" cy="43.5" r="1.5" fill="#E6E5E5"/>
<circle cx="25.5" cy="43.5" r="1.5" fill="#E6E5E5"/>
<circle cx="31.5" cy="43.5" r="1.5" fill="#E6E5E5"/>
<circle cx="37.5" cy="43.5" r="1.5" fill="#E6E5E5"/>
<circle cx="43.5" cy="43.5" r="1.5" fill="#E6E5E5"/>
<circle cx="1.5" cy="49.5" r="1.5" fill="#E6E5E5"/>
<circle cx="7.5" cy="49.5" r="1.5" fill="#E6E5E5"/>
<circle cx="13.5" cy="49.5" r="1.5" fill="#E6E5E5"/>
<circle cx="19.5" cy="49.5" r="1.5" fill="#E6E5E5"/>
<circle cx="25.5" cy="49.5" r="1.5" fill="#E6E5E5"/>
<circle cx="31.5" cy="49.5" r="1.5" fill="#E6E5E5"/>
<circle cx="37.5" cy="49.5" r="1.5" fill="#E6E5E5"/>
<circle cx="43.5" cy="49.5" r="1.5" fill="#E6E5E5"/>
<circle cx="1.5" cy="55.5" r="1.5" fill="#E6E5E5"/>
<circle cx="7.5" cy="55.5" r="1.5" fill="#E6E5E5"/>
<circle cx="13.5" cy="55.5" r="1.5" fill="#E6E5E5"/>
<circle cx="19.5" cy="55.5" r="1.5" fill="#E6E5E5"/>
<circle cx="25.5" cy="55.5" r="1.5" fill="#E6E5E5"/>
<circle cx="31.5" cy="55.5" r="1.5" fill="#E6E5E5"/>
<circle cx="37.5" cy="55.5" r="1.5" fill="#E6E5E5"/>
<circle cx="43.5" cy="55.5" r="1.5" fill="#E6E5E5"/>
<circle cx="1.5" cy="61.5" r="1.5" fill="#E6E5E5"/>
<circle cx="7.5" cy="61.5" r="1.5" fill="#E6E5E5"/>
<circle cx="13.5" cy="61.5" r="1.5" fill="#E6E5E5"/>
<circle cx="19.5" cy="61.5" r="1.5" fill="#E6E5E5"/>
<circle cx="25.5" cy="61.5" r="1.5" fill="#E6E5E5"/>
<circle cx="31.5" cy="61.5" r="1.5" fill="#E6E5E5"/>
<circle cx="37.5" cy="61.5" r="1.5" fill="#E6E5E5"/>
<circle cx="43.5" cy="61.5" r="1.5" fill="#E6E5E5"/>
</svg>
