<svg width="77" height="55" viewBox="0 0 77 55" fill="none" xmlns="http://www.w3.org/2000/svg">
<circle cx="1.83333" cy="53.1667" r="1.83333" transform="rotate(-90 1.83333 53.1667)" fill="#E6E5E5"/>
<circle cx="1.83333" cy="45.8334" r="1.83333" transform="rotate(-90 1.83333 45.8334)" fill="#E6E5E5"/>
<circle cx="1.83333" cy="38.5" r="1.83333" transform="rotate(-90 1.83333 38.5)" fill="#E6E5E5"/>
<circle cx="1.83333" cy="31.1667" r="1.83333" transform="rotate(-90 1.83333 31.1667)" fill="#E6E5E5"/>
<circle cx="1.83333" cy="23.8334" r="1.83333" transform="rotate(-90 1.83333 23.8334)" fill="#E6E5E5"/>
<circle cx="1.83333" cy="16.5" r="1.83333" transform="rotate(-90 1.83333 16.5)" fill="#E6E5E5"/>
<circle cx="1.83333" cy="9.16667" r="1.83333" transform="rotate(-90 1.83333 9.16667)" fill="#E6E5E5"/>
<circle cx="1.83333" cy="1.83335" r="1.83333" transform="rotate(-90 1.83333 1.83335)" fill="#E6E5E5"/>
<circle cx="9.16671" cy="53.1667" r="1.83333" transform="rotate(-90 9.16671 53.1667)" fill="#E6E5E5"/>
<circle cx="9.16683" cy="45.8334" r="1.83333" transform="rotate(-90 9.16683 45.8334)" fill="#E6E5E5"/>
<circle cx="9.16683" cy="38.5" r="1.83333" transform="rotate(-90 9.16683 38.5)" fill="#E6E5E5"/>
<circle cx="9.16683" cy="31.1667" r="1.83333" transform="rotate(-90 9.16683 31.1667)" fill="#E6E5E5"/>
<circle cx="9.16683" cy="23.8334" r="1.83333" transform="rotate(-90 9.16683 23.8334)" fill="#E6E5E5"/>
<circle cx="9.16683" cy="16.5" r="1.83333" transform="rotate(-90 9.16683 16.5)" fill="#E6E5E5"/>
<circle cx="9.16683" cy="9.16667" r="1.83333" transform="rotate(-90 9.16683 9.16667)" fill="#E6E5E5"/>
<circle cx="9.16683" cy="1.83335" r="1.83333" transform="rotate(-90 9.16683 1.83335)" fill="#E6E5E5"/>
<circle cx="16.5" cy="53.1667" r="1.83333" transform="rotate(-90 16.5 53.1667)" fill="#E6E5E5"/>
<circle cx="16.4998" cy="45.8334" r="1.83333" transform="rotate(-90 16.4998 45.8334)" fill="#E6E5E5"/>
<circle cx="16.4998" cy="38.5" r="1.83333" transform="rotate(-90 16.4998 38.5)" fill="#E6E5E5"/>
<circle cx="16.4998" cy="31.1667" r="1.83333" transform="rotate(-90 16.4998 31.1667)" fill="#E6E5E5"/>
<circle cx="16.4998" cy="23.8334" r="1.83333" transform="rotate(-90 16.4998 23.8334)" fill="#E6E5E5"/>
<circle cx="16.4998" cy="16.5" r="1.83333" transform="rotate(-90 16.4998 16.5)" fill="#E6E5E5"/>
<circle cx="16.4998" cy="9.16667" r="1.83333" transform="rotate(-90 16.4998 9.16667)" fill="#E6E5E5"/>
<circle cx="16.4998" cy="1.83335" r="1.83333" transform="rotate(-90 16.4998 1.83335)" fill="#E6E5E5"/>
<circle cx="23.8333" cy="53.1667" r="1.83333" transform="rotate(-90 23.8333 53.1667)" fill="#E6E5E5"/>
<circle cx="23.8333" cy="45.8334" r="1.83333" transform="rotate(-90 23.8333 45.8334)" fill="#E6E5E5"/>
<circle cx="23.8333" cy="38.5" r="1.83333" transform="rotate(-90 23.8333 38.5)" fill="#E6E5E5"/>
<circle cx="23.8333" cy="31.1667" r="1.83333" transform="rotate(-90 23.8333 31.1667)" fill="#E6E5E5"/>
<circle cx="23.8333" cy="23.8334" r="1.83333" transform="rotate(-90 23.8333 23.8334)" fill="#E6E5E5"/>
<circle cx="23.8333" cy="16.5" r="1.83333" transform="rotate(-90 23.8333 16.5)" fill="#E6E5E5"/>
<circle cx="23.8333" cy="9.16667" r="1.83333" transform="rotate(-90 23.8333 9.16667)" fill="#E6E5E5"/>
<circle cx="23.8333" cy="1.83335" r="1.83333" transform="rotate(-90 23.8333 1.83335)" fill="#E6E5E5"/>
<circle cx="31.1667" cy="53.1667" r="1.83333" transform="rotate(-90 31.1667 53.1667)" fill="#E6E5E5"/>
<circle cx="31.1668" cy="45.8334" r="1.83333" transform="rotate(-90 31.1668 45.8334)" fill="#E6E5E5"/>
<circle cx="31.1668" cy="38.5" r="1.83333" transform="rotate(-90 31.1668 38.5)" fill="#E6E5E5"/>
<circle cx="31.1668" cy="31.1667" r="1.83333" transform="rotate(-90 31.1668 31.1667)" fill="#E6E5E5"/>
<circle cx="31.1668" cy="23.8334" r="1.83333" transform="rotate(-90 31.1668 23.8334)" fill="#E6E5E5"/>
<circle cx="31.1668" cy="16.5" r="1.83333" transform="rotate(-90 31.1668 16.5)" fill="#E6E5E5"/>
<circle cx="31.1668" cy="9.16667" r="1.83333" transform="rotate(-90 31.1668 9.16667)" fill="#E6E5E5"/>
<circle cx="31.1668" cy="1.83335" r="1.83333" transform="rotate(-90 31.1668 1.83335)" fill="#E6E5E5"/>
<circle cx="38.5" cy="53.1667" r="1.83333" transform="rotate(-90 38.5 53.1667)" fill="#E6E5E5"/>
<circle cx="38.4998" cy="45.8334" r="1.83333" transform="rotate(-90 38.4998 45.8334)" fill="#E6E5E5"/>
<circle cx="38.4998" cy="38.5" r="1.83333" transform="rotate(-90 38.4998 38.5)" fill="#5C9FFF"/>
<circle cx="38.4998" cy="31.1667" r="1.83333" transform="rotate(-90 38.4998 31.1667)" fill="#E6E5E5"/>
<circle cx="38.4998" cy="23.8334" r="1.83333" transform="rotate(-90 38.4998 23.8334)" fill="#E6E5E5"/>
<circle cx="38.4998" cy="16.5" r="1.83333" transform="rotate(-90 38.4998 16.5)" fill="#E6E5E5"/>
<circle cx="38.4998" cy="9.16667" r="1.83333" transform="rotate(-90 38.4998 9.16667)" fill="#E6E5E5"/>
<circle cx="38.4998" cy="1.83335" r="1.83333" transform="rotate(-90 38.4998 1.83335)" fill="#E6E5E5"/>
<circle cx="45.8333" cy="53.1667" r="1.83333" transform="rotate(-90 45.8333 53.1667)" fill="#E6E5E5"/>
<circle cx="45.8333" cy="45.8334" r="1.83333" transform="rotate(-90 45.8333 45.8334)" fill="#E6E5E5"/>
<circle cx="45.8333" cy="38.5" r="1.83333" transform="rotate(-90 45.8333 38.5)" fill="#E6E5E5"/>
<circle cx="45.8333" cy="31.1667" r="1.83333" transform="rotate(-90 45.8333 31.1667)" fill="#E6E5E5"/>
<circle cx="45.8333" cy="23.8334" r="1.83333" transform="rotate(-90 45.8333 23.8334)" fill="#E6E5E5"/>
<circle cx="45.8333" cy="16.5" r="1.83333" transform="rotate(-90 45.8333 16.5)" fill="#E6E5E5"/>
<circle cx="45.8333" cy="9.16667" r="1.83333" transform="rotate(-90 45.8333 9.16667)" fill="#E6E5E5"/>
<circle cx="45.8333" cy="1.83335" r="1.83333" transform="rotate(-90 45.8333 1.83335)" fill="#E6E5E5"/>
<circle cx="53.1666" cy="53.1667" r="1.83333" transform="rotate(-90 53.1666 53.1667)" fill="#E6E5E5"/>
<circle cx="53.1666" cy="45.8334" r="1.83333" transform="rotate(-90 53.1666 45.8334)" fill="#E6E5E5"/>
<circle cx="53.1666" cy="38.5" r="1.83333" transform="rotate(-90 53.1666 38.5)" fill="#E6E5E5"/>
<circle cx="53.1666" cy="31.1667" r="1.83333" transform="rotate(-90 53.1666 31.1667)" fill="#E6E5E5"/>
<circle cx="53.1666" cy="23.8334" r="1.83333" transform="rotate(-90 53.1666 23.8334)" fill="#E6E5E5"/>
<circle cx="53.1666" cy="16.5" r="1.83333" transform="rotate(-90 53.1666 16.5)" fill="#E6E5E5"/>
<circle cx="53.1666" cy="9.16667" r="1.83333" transform="rotate(-90 53.1666 9.16667)" fill="#E6E5E5"/>
<circle cx="53.1666" cy="1.83335" r="1.83333" transform="rotate(-90 53.1666 1.83335)" fill="#E6E5E5"/>
<circle cx="60.5001" cy="53.1667" r="1.83333" transform="rotate(-90 60.5001 53.1667)" fill="#E6E5E5"/>
<circle cx="60.5001" cy="45.8334" r="1.83333" transform="rotate(-90 60.5001 45.8334)" fill="#E6E5E5"/>
<circle cx="60.5001" cy="38.5" r="1.83333" transform="rotate(-90 60.5001 38.5)" fill="#E6E5E5"/>
<circle cx="60.5001" cy="31.1667" r="1.83333" transform="rotate(-90 60.5001 31.1667)" fill="#E6E5E5"/>
<circle cx="60.5001" cy="23.8334" r="1.83333" transform="rotate(-90 60.5001 23.8334)" fill="#E6E5E5"/>
<circle cx="60.5001" cy="16.5" r="1.83333" transform="rotate(-90 60.5001 16.5)" fill="#E6E5E5"/>
<circle cx="60.5001" cy="9.16667" r="1.83333" transform="rotate(-90 60.5001 9.16667)" fill="#E6E5E5"/>
<circle cx="60.5001" cy="1.83335" r="1.83333" transform="rotate(-90 60.5001 1.83335)" fill="#E6E5E5"/>
<circle cx="67.8333" cy="53.1667" r="1.83333" transform="rotate(-90 67.8333 53.1667)" fill="#E6E5E5"/>
<circle cx="67.8333" cy="45.8334" r="1.83333" transform="rotate(-90 67.8333 45.8334)" fill="#E6E5E5"/>
<circle cx="67.8333" cy="38.5" r="1.83333" transform="rotate(-90 67.8333 38.5)" fill="#E6E5E5"/>
<circle cx="67.8333" cy="31.1667" r="1.83333" transform="rotate(-90 67.8333 31.1667)" fill="#E6E5E5"/>
<circle cx="67.8333" cy="23.8334" r="1.83333" transform="rotate(-90 67.8333 23.8334)" fill="#E6E5E5"/>
<circle cx="67.8333" cy="16.5" r="1.83333" transform="rotate(-90 67.8333 16.5)" fill="#E6E5E5"/>
<circle cx="67.8333" cy="9.16667" r="1.83333" transform="rotate(-90 67.8333 9.16667)" fill="#E6E5E5"/>
<circle cx="67.8333" cy="1.83335" r="1.83333" transform="rotate(-90 67.8333 1.83335)" fill="#E6E5E5"/>
<circle cx="75.1666" cy="53.1667" r="1.83333" transform="rotate(-90 75.1666 53.1667)" fill="#E6E5E5"/>
<circle cx="75.1666" cy="45.8334" r="1.83333" transform="rotate(-90 75.1666 45.8334)" fill="#E6E5E5"/>
<circle cx="75.1666" cy="38.5" r="1.83333" transform="rotate(-90 75.1666 38.5)" fill="#E6E5E5"/>
<circle cx="75.1666" cy="31.1667" r="1.83333" transform="rotate(-90 75.1666 31.1667)" fill="#E6E5E5"/>
<circle cx="75.1666" cy="23.8334" r="1.83333" transform="rotate(-90 75.1666 23.8334)" fill="#E6E5E5"/>
<circle cx="75.1666" cy="16.5" r="1.83333" transform="rotate(-90 75.1666 16.5)" fill="#E6E5E5"/>
<circle cx="75.1666" cy="9.16667" r="1.83333" transform="rotate(-90 75.1666 9.16667)" fill="#E6E5E5"/>
<circle cx="75.1666" cy="1.83335" r="1.83333" transform="rotate(-90 75.1666 1.83335)" fill="#E6E5E5"/>
</svg>
