<svg width="16" height="16" viewBox="0 0 16 16" fill="none" xmlns="http://www.w3.org/2000/svg">
<g clip-path="url(#clip0_171_1727)">
<path d="M11.1963 9.06673C11.3239 8.72564 11.3887 8.36424 11.3874 8.00006C11.3874 7.19145 11.0662 6.41595 10.4944 5.84417C9.9226 5.27239 9.14711 4.95117 8.33849 4.95117C7.9788 4.95159 7.62207 5.01631 7.28516 5.14228L8.00071 5.88006C8.10948 5.86266 8.21945 5.85374 8.3296 5.85339C8.90135 5.8522 9.45035 6.07728 9.85671 6.47948C10.2631 6.88168 10.4938 7.42833 10.4985 8.00006C10.4981 8.11022 10.4892 8.22018 10.4718 8.32895L11.1963 9.06673Z" fill="#939393"/>
<path d="M15.2409 7.79015C13.7431 5.02126 11.1164 3.3457 8.20975 3.3457C7.41835 3.34756 6.63226 3.47507 5.88086 3.72348L6.59642 4.44348C7.12346 4.30727 7.66539 4.2371 8.20975 4.23459C10.712 4.23459 12.9875 5.63015 14.3431 7.98126C13.8458 8.85353 13.1866 9.62285 12.4009 10.2479L13.032 10.879C13.9413 10.1454 14.6966 9.23912 15.2542 8.21237L15.3697 7.99904L15.2409 7.79015Z" fill="#939393"/>
<path d="M2.16526 2.56847L4.14748 4.55069C2.89456 5.35741 1.87055 6.47326 1.17415 7.7907L1.05859 7.99958L1.17415 8.21292C2.67193 10.9818 5.29859 12.6574 8.20526 12.6574C9.33977 12.6571 10.4596 12.4004 11.4808 11.9063L13.703 14.1285L14.4808 13.4618L2.92526 1.90625L2.16526 2.56847ZM6.49859 6.90181L9.45415 9.85736C9.1202 10.0641 8.73577 10.1748 8.34304 10.1774C8.05767 10.1774 7.77512 10.1209 7.51165 10.0113C7.24817 9.90173 7.00897 9.74111 6.80781 9.5387C6.60665 9.3363 6.44749 9.09612 6.33951 8.83198C6.23152 8.56783 6.17684 8.28494 6.17859 7.99958C6.1836 7.61139 6.29423 7.23189 6.49859 6.90181ZM5.85415 6.25736C5.43834 6.84376 5.24345 7.55838 5.30398 8.27469C5.36451 8.991 5.67655 9.66278 6.18486 10.1711C6.69317 10.6794 7.36496 10.9914 8.08126 11.052C8.79757 11.1125 9.51219 10.9176 10.0986 10.5018L10.8097 11.2129C9.9865 11.5648 9.10052 11.7462 8.20526 11.7463C5.70304 11.7463 3.42748 10.3507 2.07193 7.99958C2.72246 6.84768 3.65936 5.88323 4.79193 5.19958L5.85415 6.25736Z" fill="#939393"/>
</g>
<defs>
<clipPath id="clip0_171_1727">
<rect width="16" height="16" fill="white"/>
</clipPath>
</defs>
</svg>
