<svg width="124" height="30" viewBox="0 0 124 30" fill="none" xmlns="http://www.w3.org/2000/svg">
<path d="M88.8469 10.2628C88.8057 13.3303 91.7387 15.0419 93.9481 16.0597C96.218 17.1039 96.9805 17.7735 96.9715 18.7074C96.9546 20.1364 95.1608 20.7672 93.4823 20.7917C90.5538 20.8346 88.8511 20.0443 87.4974 19.4465L86.4425 24.113C87.8006 24.7046 90.3155 25.2205 92.9233 25.2432C99.0448 25.2432 103.05 22.3867 103.071 17.9578C103.095 12.337 94.8469 12.0259 94.9033 9.51352C94.9227 8.75172 95.6917 7.93877 97.3767 7.73207C98.2107 7.62766 100.513 7.54775 103.123 8.68406L104.148 4.16918C102.744 3.68599 100.94 3.22332 98.6937 3.22332C92.932 3.22332 88.8795 6.1187 88.8469 10.2628V10.2628ZM113.993 3.61221C112.875 3.61221 111.933 4.22857 111.512 5.17444L102.768 24.9115H108.885L110.102 21.7314H117.577L118.283 24.9115H123.675L118.97 3.61221H113.993V3.61221ZM114.848 9.36596L116.614 17.3641H111.779L114.848 9.36596V9.36596ZM81.4303 3.61247L76.6086 24.9113H82.4376L87.2571 3.61194H81.4303V3.61247ZM72.8072 3.61194L66.74 18.1094L64.2858 5.78282C63.9978 4.40678 62.8606 3.61221 61.5977 3.61221H51.6798L51.5409 4.23071C53.577 4.64837 55.8903 5.322 57.2919 6.04279C58.1496 6.48309 58.3942 6.86799 58.676 7.91427L63.3244 24.9115H69.4842L78.9281 3.61221H72.8072" fill="url(#paint0_linear_11_2)"/>
<path d="M17.6997 4.03113H30.3231V26.7132H17.6997V4.03113Z" fill="#FF5F00"/>
<path d="M18.5002 15.3722C18.5002 10.7637 20.6641 6.67607 23.9902 4.03109C21.5459 2.10755 18.4602 0.945435 15.094 0.945435C7.11888 0.945435 0.666992 7.39732 0.666992 15.3722C0.666992 23.347 7.11888 29.799 15.0938 29.799C18.46 29.799 21.5457 28.6369 23.9902 26.7132C20.6641 24.1084 18.5002 19.9807 18.5002 15.3722Z" fill="#EB001B"/>
<path d="M47.3544 15.3722C47.3544 23.347 40.9025 29.799 32.9276 29.799C29.5613 29.799 26.4757 28.6369 24.0311 26.7132C27.3974 24.0684 29.5213 19.9807 29.5213 15.3722C29.5213 10.7637 27.3572 6.67607 24.0311 4.03109C26.4755 2.10755 29.5613 0.945435 32.9276 0.945435C40.9025 0.945435 47.3545 7.43749 47.3545 15.3722H47.3544Z" fill="#F79E1B"/>
<defs>
<linearGradient id="paint0_linear_11_2" x1="84.7038" y1="25.6849" x2="85.3064" y2="3.06826" gradientUnits="userSpaceOnUse">
<stop stop-color="#222357"/>
<stop offset="1" stop-color="#254AA5"/>
</linearGradient>
</defs>
</svg>
