<svg width="48" height="48" viewBox="0 0 48 48" fill="none" xmlns="http://www.w3.org/2000/svg">
<path d="M6.69922 23.2509V16.1309C6.69922 15.6004 6.90993 15.0917 7.28501 14.7166C7.66008 14.3416 8.16879 14.1309 8.69922 14.1309H41.4992C42.0297 14.1309 42.5384 14.3416 42.9134 14.7166C43.2885 15.0917 43.4992 15.6004 43.4992 16.1309V39.1309C43.4992 39.6613 43.2885 40.17 42.9134 40.5451C42.5384 40.9201 42.0297 41.1309 41.4992 41.1309H8.69922C8.16879 41.1309 7.66008 40.9201 7.28501 40.5451C6.90993 40.17 6.69922 39.6613 6.69922 39.1309V32.0009" stroke="#2A73DE" stroke-width="2" stroke-linecap="round" stroke-linejoin="round"/>
<path d="M5.5 23.25H17C17.5304 23.25 18.0391 23.4607 18.4142 23.8358C18.7893 24.2109 19 24.7196 19 25.25V30C19 30.5304 18.7893 31.0391 18.4142 31.4142C18.0391 31.7893 17.5304 32 17 32H5.5C5.23478 32 4.98043 31.8946 4.79289 31.7071C4.60536 31.5196 4.5 31.2652 4.5 31V24.25C4.5 23.9848 4.60536 23.7304 4.79289 23.5429C4.98043 23.3554 5.23478 23.25 5.5 23.25Z" stroke="#2A73DE" stroke-width="2" stroke-linecap="round" stroke-linejoin="round"/>
<path d="M14.4902 29.6309C15.5948 29.6309 16.4902 28.7354 16.4902 27.6309C16.4902 26.5263 15.5948 25.6309 14.4902 25.6309C13.3857 25.6309 12.4902 26.5263 12.4902 27.6309C12.4902 28.7354 13.3857 29.6309 14.4902 29.6309Z" stroke="#2A73DE" stroke-width="2" stroke-linecap="round" stroke-linejoin="round"/>
<path d="M38.1201 14.1291L13.1901 6.86914L11.0801 14.1291" stroke="#2A73DE" stroke-width="2" stroke-linecap="round" stroke-linejoin="round"/>
</svg>
